<?xml version="1.0" encoding="UTF-8"?>
<svg version="1.1" xmlns="http://www.w3.org/2000/svg" width="500" height="500">
<path d="M0 0 C0.66 0.33 1.32 0.66 2 1 C2 1.66 2 2.32 2 3 C2.99 3.33 3.98 3.66 5 4 C6.8671875 6.109375 6.8671875 6.109375 8.875 8.75 C11.70466739 12.45630944 14.67343573 15.73328397 18 19 C19.96178269 21.04028083 21.88962518 23.11058981 23.8125 25.1875 C24.56563477 25.98704102 24.56563477 25.98704102 25.33398438 26.80273438 C29 30.76801658 29 30.76801658 29 33 C29.66 33 30.32 33 31 33 C32.48046875 34.46875 32.48046875 34.46875 34.1875 36.5 C37.29922661 40.17392932 40.48152755 43.7686304 43.71484375 47.3359375 C45 49 45 49 45 51 C45.99 51.33 46.98 51.66 48 52 C48 52.66 48 53.32 48 54 C48.66 54 49.32 54 50 54 C53 57.46153846 53 57.46153846 53 60 C53.99 60.33 54.98 60.66 56 61 C57.75390625 62.70703125 57.75390625 62.70703125 59.5625 64.8125 C60.16191406 65.49957031 60.76132813 66.18664062 61.37890625 66.89453125 C62.89648749 68.86555845 63.97902958 70.73964261 65 73 C65.66 73 66.32 73 67 73 C68.4328718 74.61718311 69.79624749 76.29623372 71.125 78 C74.57441583 82.3172977 78.14430827 86.26161002 82.1015625 90.109375 C84.59933319 92.5968668 86.89256375 95.23186389 89.19140625 97.90234375 C91.24980358 100.28972899 93.34122086 102.64583063 95.4375 105 C96.45650391 106.1446875 96.45650391 106.1446875 97.49609375 107.3125 C97.99238281 107.869375 98.48867187 108.42625 99 109 C103.17542809 107.40700492 105.72890616 104.31866968 108.625 101.0625 C109.11484375 100.52431641 109.6046875 99.98613281 110.109375 99.43164062 C112.27133449 97.0363549 114.20708323 94.68937516 116 92 C116.66 92 117.32 92 118 92 C118.22558594 91.45601563 118.45117188 90.91203125 118.68359375 90.3515625 C120.41223787 87.26359881 122.64550144 84.95545026 125.0625 82.375 C128.41533647 78.95790247 128.41533647 78.95790247 131 75 C131.66 75 132.32 75 133 75 C133.226875 74.46375 133.45375 73.9275 133.6875 73.375 C135.45570089 70.17539839 137.53670203 67.70962777 140 65 C140.66 65 141.32 65 142 65 C142.268125 64.41734375 142.53625 63.8346875 142.8125 63.234375 C144.01480991 60.97213399 145.33825913 59.19423682 147 57.25 C147.515625 56.63640625 148.03125 56.0228125 148.5625 55.390625 C150 54 150 54 152 54 C152.268125 53.41734375 152.53625 52.8346875 152.8125 52.234375 C154.01480991 49.97213399 155.33825913 48.19423682 157 46.25 C157.515625 45.63640625 158.03125 45.0228125 158.5625 44.390625 C160 43 160 43 162 43 C162.24878906 42.4328125 162.49757812 41.865625 162.75390625 41.28125 C164.19546302 38.64216174 165.8990283 36.71172336 167.9375 34.5 C169.13826172 33.18902344 169.13826172 33.18902344 170.36328125 31.8515625 C171.23339844 30.91054687 172.10351562 29.96953125 173 29 C174.87664968 26.9598468 176.75087538 24.91747271 178.625 22.875 C179.32399414 22.11401001 179.32399414 22.11401001 180.03710938 21.33764648 C186.79493517 13.97587537 186.79493517 13.97587537 193.125 6.25 C195.18589776 3.77692269 197.43022045 1.92733466 200 0 C200.99529655 2.98588964 201.11108292 4.87959108 201.08229065 7.99235535 C201.07525116 9.02300613 201.06821167 10.05365692 201.06095886 11.11553955 C201.04801285 12.24554382 201.03506683 13.3755481 201.02172852 14.53979492 C201.01212097 15.73016861 201.00251343 16.9205423 200.99261475 18.14698792 C200.96526688 21.41121726 200.93336958 24.67536444 200.89946485 27.93953109 C200.86510281 31.35079413 200.83653552 34.76210553 200.80735779 38.17341614 C200.75122277 44.63323084 200.68986418 51.09298497 200.62663645 57.55273372 C200.55490778 64.90692042 200.48899082 72.26115561 200.42356598 79.61540067 C200.28885151 94.74366341 200.14682577 109.8718496 200 125 C200.66 125 201.32 125 202 125 C202.40089844 123.7521875 202.80179688 122.504375 203.21484375 121.21875 C205.10538048 115.55269042 207.30867778 110.02976936 209.5625 104.5 C209.96146484 103.4996875 210.36042969 102.499375 210.77148438 101.46875 C211.15755859 100.52 211.54363281 99.57125 211.94140625 98.59375 C212.28888916 97.73458984 212.63637207 96.87542969 212.99438477 95.99023438 C214 94 214 94 216 93 C216.52478406 94.24477292 217.04951086 95.48956998 217.57421875 96.734375 C217.9101001 97.53101563 218.24598145 98.32765625 218.59204102 99.1484375 C219.32430808 100.88746979 220.05525853 102.62705704 220.78491211 104.3671875 C222.39218157 108.1986148 224.00196377 112.02693544 225.6796875 115.828125 C226.13601563 116.87484375 226.59234375 117.9215625 227.0625 119 C227.46597656 119.9075 227.86945313 120.815 228.28515625 121.75 C229 124 229 124 228 127 C226.1875 126.9375 226.1875 126.9375 224 126 C222.25 122.4375 222.25 122.4375 221 119 C217.04 119 213.08 119 209 119 C208.71125 119.94875 208.4225 120.8975 208.125 121.875 C207 125 207 125 205 127 C202.375 126.625 202.375 126.625 200 126 C200.10042603 127.11858398 200.10042603 127.11858398 200.20288086 128.25976562 C200.48690293 131.67120682 200.7125821 135.08417362 200.9375 138.5 C201.04384766 139.67304688 201.15019531 140.84609375 201.25976562 142.0546875 C201.61497557 148.07634187 201.75388654 151.98569358 197.6484375 156.65625 C196.44633201 157.78596195 195.2313699 158.9022592 194 160 C193.236875 160.99 192.47375 161.98 191.6875 163 C191.130625 163.66 190.57375 164.32 190 165 C189.34 165 188.68 165 188 165 C188 165.66 188 166.32 188 167 C187.34 167 186.68 167 186 167 C185.7525 167.556875 185.505 168.11375 185.25 168.6875 C183.77075182 171.42410913 182.06532561 173.67650869 180 176 C179.34 176 178.68 176 178 176 C177.773125 176.5775 177.54625 177.155 177.3125 177.75 C175.66961977 180.5663661 173.60466773 182.08077114 171 184 C170.08513584 181.25540752 169.87620357 179.66575333 169.87974548 176.84284973 C169.87768349 175.57454063 169.87768349 175.57454063 169.87557983 174.28060913 C169.87917511 173.35632111 169.88277039 172.43203308 169.88647461 171.47973633 C169.88632858 170.50394119 169.88618256 169.52814606 169.8860321 168.52278137 C169.88672962 165.29250884 169.89451455 162.06229373 169.90234375 158.83203125 C169.9042085 156.59429455 169.90563213 154.35655744 169.90663147 152.11882019 C169.91045216 146.22513708 169.92027865 140.33147856 169.93133545 134.43780518 C169.94155919 128.42533704 169.94613116 122.41286494 169.95117188 116.40039062 C169.96190129 104.60024961 169.97897237 92.80012685 170 81 C169.59007812 81.5053125 169.18015625 82.010625 168.7578125 82.53125 C168.21898437 83.1809375 167.68015625 83.830625 167.125 84.5 C166.59132812 85.1496875 166.05765625 85.799375 165.5078125 86.46875 C165.01023438 86.9740625 164.51265625 87.479375 164 88 C163.34 88 162.68 88 162 88 C161.73832031 88.59167969 161.47664062 89.18335938 161.20703125 89.79296875 C159.93601579 92.11699378 158.62015004 93.51697812 156.6875 95.3125 C153.76440025 98.13876829 151.46060058 101.03372879 149.17578125 104.3828125 C147.38064501 106.85187032 145.18135817 108.87184569 143 111 C141.42120784 112.86406897 139.86740476 114.74455717 138.33203125 116.64453125 C137.89246094 117.09183594 137.45289063 117.53914063 137 118 C136.34 118 135.68 118 135 118 C134.7421875 118.57234375 134.484375 119.1446875 134.21875 119.734375 C132.88634058 122.21128995 131.34943882 124.1341166 129.5 126.25 C128.8915625 126.95640625 128.283125 127.6628125 127.65625 128.390625 C126 130 126 130 124 130 C123.34 131.65 122.68 133.3 122 135 C123.11800161 136.21963812 124.23604269 137.43924009 125.35424805 138.65869141 C126.33422503 139.72808534 127.31354457 140.79808208 128.29223633 141.86865234 C130.90638301 144.72629599 133.53095417 147.57279433 136.1796875 150.3984375 C136.93608521 151.21006348 136.93608521 151.21006348 137.70776367 152.03808594 C138.68313737 153.08410624 139.66239019 154.12652475 140.64575195 155.16503906 C144 158.77513519 144 158.77513519 144 161 C144.66 161 145.32 161 146 161 C146.66 161.66 147.32 162.32 148 163 C150.64 159.7 153.28 156.4 156 153 C158.38074868 155.38074868 158.27343192 155.9505493 158.36987305 159.19921875 C158.39877121 160.06772461 158.42766937 160.93623047 158.45744324 161.83105469 C158.47535416 162.77368164 158.49326508 163.71630859 158.51171875 164.6875 C158.53023392 165.65977539 158.54874908 166.63205078 158.56782532 167.63378906 C158.5999183 169.69831688 158.62554353 171.76295365 158.64526367 173.82763672 C158.67323531 175.92858142 158.72082704 178.029364 158.78881836 180.12939453 C159.42389241 199.80271535 159.42389241 199.80271535 153.45703125 206.4375 C150.94458008 208.62109375 150.94458008 208.62109375 149 210 C144.57624651 209.16500846 142.54953524 206.72501321 139.6875 203.4375 C139.20039551 202.89174316 138.71329102 202.34598633 138.21142578 201.78369141 C136.79867672 200.19674856 135.39765886 198.60023325 134 197 C133.35417969 196.26652344 132.70835937 195.53304687 132.04296875 194.77734375 C130.93930623 193.51859984 129.83898597 192.25691684 128.7421875 190.9921875 C126.68499601 188.63979365 124.59403085 186.31965034 122.5 184 C121 182.33333333 119.5 180.66666667 118 179 C117.32066406 178.24976563 116.64132813 177.49953125 115.94140625 176.7265625 C115.01134766 175.68628906 115.01134766 175.68628906 114.0625 174.625 C113.51722656 174.01914062 112.97195312 173.41328125 112.41015625 172.7890625 C110.95864619 170.9475345 109.97053452 169.12861194 109 167 C108.34 167 107.68 167 107 167 C107 166.34 107 165.68 107 165 C106.34 165 105.68 165 105 165 C103.61767557 163.37373596 102.28062485 161.7074998 101 160 C97.95106884 161.12923376 96.35458426 162.6343658 94.375 165.125 C93.59125 166.07375 92.8075 167.0225 92 168 C91.34 168 90.68 168 90 168 C89.66548828 168.81210937 89.66548828 168.81210937 89.32421875 169.640625 C87.57919585 172.74975134 85.24689607 175.17856974 82.8125 177.75 C81.80658908 178.82877238 80.80137925 179.90819893 79.796875 180.98828125 C79.31154297 181.5085791 78.82621094 182.02887695 78.32617188 182.56494141 C76.70049666 184.32409438 75.12573605 186.1227532 73.5625 187.9375 C69.82057578 192.26495759 65.91181631 196.43717075 61.99829102 200.60913086 C59.17449342 203.56791828 59.17449342 203.56791828 57 207 C56.34 207 55.68 207 55 207 C54.67 207.99 54.34 208.98 54 210 C50.55463828 209.74478802 49.81024183 208.78710059 47.4375 206.125 C46.633125 205.09375 45.82875 204.0625 45 203 C44.46364426 202.53466354 43.92728851 202.06932709 43.37467957 201.58988953 C41.54814337 199.47740394 41.6055528 198.20535438 41.56762695 195.43676758 C41.54783279 194.51603958 41.52803864 193.59531158 41.50764465 192.64668274 C41.50125473 191.65597275 41.49486481 190.66526276 41.48828125 189.64453125 C41.47033005 188.62775803 41.45237885 187.6109848 41.43388367 186.56340027 C41.3796646 183.31314248 41.34584741 180.0630325 41.3125 176.8125 C41.27933721 174.61000542 41.24484853 172.40753037 41.20898438 170.20507812 C41.12393168 164.80351796 41.05563102 159.40193894 41 154 C42.32 154 43.64 154 45 154 C49 158.22222222 49 158.22222222 49 161 C49.66 161 50.32 161 51 161 C51.99 161.99 51.99 161.99 53 163 C53.90492187 161.87851562 53.90492187 161.87851562 54.828125 160.734375 C55.62734375 159.74953125 56.4265625 158.7646875 57.25 157.75 C58.03890625 156.77546875 58.8278125 155.8009375 59.640625 154.796875 C62 152 62 152 64.234375 149.77734375 C66.10892209 148.09535096 66.10892209 148.09535096 67 145.8125 C67.33 145.214375 67.66 144.61625 68 144 C69.33333333 143.66666667 70.66666667 143.33333333 72 143 C73.06716704 141.20067421 73.06716704 141.20067421 74 139 C75.31382194 137.31790979 76.64546117 135.64947874 78 134 C77.32795532 133.29037109 77.32795532 133.29037109 76.64233398 132.56640625 C74.57251045 130.37906087 72.5049977 128.18954382 70.4375 126 C69.73302734 125.25621094 69.02855469 124.51242188 68.30273438 123.74609375 C64.29334212 119.49650749 60.37096391 115.19124816 56.54321289 110.77734375 C54.55829071 108.49127612 52.53197201 106.24426759 50.5 104 C49 102.33333333 47.5 100.66666667 46 99 C45.32066406 98.24976563 44.64132813 97.49953125 43.94140625 96.7265625 C43.01134766 95.68628906 43.01134766 95.68628906 42.0625 94.625 C41.51722656 94.01914063 40.97195312 93.41328125 40.41015625 92.7890625 C38.95864619 90.9475345 37.97053452 89.12861194 37 87 C36.34 87 35.68 87 35 87 C33.35 85.02 31.7 83.04 30 81 C29.67 114.99 29.34 148.98 29 184 C21.16535433 177.28458943 21.16535433 177.28458943 18.6875 174.3125 C14.90901603 169.85250865 10.93156864 165.58996465 6.94140625 161.3203125 C5 159 5 159 5 157 C4.34 157 3.68 157 3 157 C-0.04068148 154.68908207 -0.44385913 152.68493949 -1 149 C-1.07544127 147.05450684 -1.09823424 145.10660379 -1.08229065 143.15971375 C-1.07173141 141.40767387 -1.07173141 141.40767387 -1.06095886 139.62023926 C-1.04801285 138.34781372 -1.03506683 137.07538818 -1.02172852 135.7644043 C-1.01157865 134.40408142 -1.00188575 133.04375506 -0.99261475 131.6834259 C-0.96620458 127.99784111 -0.93341083 124.31233761 -0.89946485 120.62681556 C-0.8650515 116.77246405 -0.83651741 112.91806911 -0.80735779 109.06367493 C-0.75127233 101.76811433 -0.68990485 94.47260813 -0.62663645 87.17710668 C-0.55485298 78.87004645 -0.48896281 70.56294275 -0.42356598 62.25583017 C-0.28893162 45.17049663 -0.14690188 28.08523237 0 11 C-0.66 10.67 -1.32 10.34 -2 10 C-1.34 10 -0.68 10 0 10 C0 6.7 0 3.4 0 0 Z M215 103 C214.3291288 104.6232687 213.66342971 106.24867578 213 107.875 C212.62875 108.77992188 212.2575 109.68484375 211.875 110.6171875 C210.88509774 112.88983858 210.88509774 112.88983858 211 115 C213.97 115 216.94 115 220 115 C218.68 111.04 217.36 107.08 216 103 C215.67 103 215.34 103 215 103 Z " fill="#090909" transform="translate(59,101)"/>
<path d="M0 0 C1.32 0.66 2.64 1.32 4 2 C4 2.66 4 3.32 4 4 C4.99 4.33 5.98 4.66 7 5 C8.68359375 6.671875 8.68359375 6.671875 10.4375 8.75 C11.04851562 9.46800781 11.65953125 10.18601562 12.2890625 10.92578125 C13.65225226 12.57841542 14.98735445 14.25420701 16.3125 15.9375 C17.83873758 18.08980875 17.83873758 18.08980875 20 19 C20 19.66 20 20.32 20 21 C20.66 21 21.32 21 22 21 C23.375 22.36328125 23.375 22.36328125 25 24.3125 C28.08017086 27.93967795 31.22869449 31.48708828 34.4375 35 C35.30246094 35.94875 36.16742188 36.8975 37.05859375 37.875 C37.69925781 38.57625 38.33992188 39.2775 39 40 C37.57911395 43.17568033 35.83591377 45.49398464 33.5 48.0625 C31.44184439 50.33432007 29.70861829 52.43707257 28 55 C27.34 55 26.68 55 26 55 C25.731875 55.598125 25.46375 56.19625 25.1875 56.8125 C24.00691239 58.98726664 22.73183488 60.26816512 21 62 C20.67 62.99 20.34 63.98 20 65 C19.01 65 18.02 65 17 65 C16.505 66.485 16.505 66.485 16 68 C6.1 68 -3.8 68 -14 68 C-14 67.34 -14 66.68 -14 66 C-14.66 66 -15.32 66 -16 66 C-17.41015625 64.6015625 -17.41015625 64.6015625 -19.0625 62.625 C-21.86551777 59.32457825 -24.7147866 56.08157904 -27.625 52.875 C-30.83849293 49.3154386 -33.96884701 45.71560689 -37 42 C-35.63055898 39.05043472 -34.12169591 36.47531189 -32 34 C-31.34 34 -30.68 34 -30 34 C-29.74347656 33.41476562 -29.48695313 32.82953125 -29.22265625 32.2265625 C-27.89437838 29.80765392 -26.43475199 28.26801128 -24.4375 26.375 C-21.85984611 23.95478041 -21.85984611 23.95478041 -20 21 C-19.34 21 -18.68 21 -18 21 C-17.73574219 20.40703125 -17.47148437 19.8140625 -17.19921875 19.203125 C-15.95629575 16.91970946 -14.69598354 15.52573277 -12.8125 13.75 C-9.50847881 10.54966148 -6.47586269 7.18813298 -3.48046875 3.69921875 C-2.36828828 2.42270555 -1.19716986 1.19716986 0 0 Z " fill="#0C0C0C" transform="translate(158,281)"/>
<path d="M0 0 C1.20743688 0.71746249 2.39764791 1.46528612 3.5625 2.25 C4.92375 3.1471875 4.92375 3.1471875 6.3125 4.0625 C9.19267195 6.86266717 10.71395626 9.68984168 12.5625 13.25 C8.54922594 15.92551604 5.28286021 16.07727963 0.5625 15.25 C-1.1484375 14.1640625 -1.1484375 14.1640625 -2.625 12.8125 C-5.7673456 9.94947401 -7.23969794 9.33931494 -11.4375 9.25 C-14.21973378 9.94485264 -14.21973378 9.94485264 -16.4375 11.25 C-16.7675 11.91 -17.0975 12.57 -17.4375 13.25 C-18.4275 13.25 -19.4175 13.25 -20.4375 13.25 C-22.16927533 18.44532598 -22.07058904 23.48401478 -20.25 28.5625 C-18.18021951 31.63148487 -16.85886986 32.85034869 -13.4375 34.25 C-8.47342884 34.78186477 -5.38737524 34.38666564 -1.4375 31.25 C-1.1075 30.26 -0.7775 29.27 -0.4375 28.25 C-3.4075 27.92 -6.3775 27.59 -9.4375 27.25 C-9.81813221 24.9239143 -10.15019945 22.58944736 -10.4375 20.25 C-9.4375 19.25 -9.4375 19.25 -7.21264648 19.13647461 C-6.25430908 19.14171143 -5.29597168 19.14694824 -4.30859375 19.15234375 C-2.75688477 19.15717773 -2.75688477 19.15717773 -1.17382812 19.16210938 C-0.08521484 19.17048828 1.00339844 19.17886719 2.125 19.1875 C3.7637207 19.19426758 3.7637207 19.19426758 5.43554688 19.20117188 C8.14458495 19.21300174 10.85351599 19.22948457 13.5625 19.25 C14.82880883 23.0489265 14.04685184 24.51066748 12.75 28.25 C12.39292969 29.301875 12.03585937 30.35375 11.66796875 31.4375 C10.5625 34.25 10.5625 34.25 8.5625 37.25 C7.9025 37.25 7.2425 37.25 6.5625 37.25 C6.5625 37.91 6.5625 38.57 6.5625 39.25 C2.0286862 43.77209852 -2.56952152 45.69540954 -8.9375 45.875 C-17.57691204 45.42188398 -24.08525745 42.69552211 -29.99609375 36.3046875 C-33.85551989 30.80317489 -35.17167576 23.8575818 -34.4375 17.25 C-33.03796344 11.60845726 -30.91390765 8.08692085 -26.4375 4.25 C-25.6125 3.528125 -24.7875 2.80625 -23.9375 2.0625 C-17.06292717 -2.9215653 -7.70158667 -3.71901714 0 0 Z " fill="#232323" transform="translate(427.4375,140.75)"/>
<path d="M0 0 C5.37698414 5.37698414 8.42191809 11.24958095 8.75 18.875 C8.66806506 25.65101918 6.76902188 30.22320625 2.3125 35.3125 C-4.17731381 40.65001856 -9.066987 42.71830934 -17.43359375 42.66796875 C-23.59752054 41.9945986 -29.65046822 39.12340368 -33.6875 34.3125 C-33.6875 33.6525 -33.6875 32.9925 -33.6875 32.3125 C-34.3475 32.3125 -35.0075 32.3125 -35.6875 32.3125 C-39.32630923 26.30055432 -40.52602621 20.35519588 -39.09765625 13.46875 C-36.79881155 6.28609361 -33.40574404 1.04927773 -26.80859375 -2.77734375 C-17.63138142 -6.80048532 -8.26203731 -5.18779087 0 0 Z M-26.5625 12.625 C-28.01967435 16.10602761 -28.08871989 18.56778098 -27.6875 22.3125 C-26.02863226 25.96200902 -24.2291427 28.39809854 -20.6875 30.3125 C-16.74212936 31.39001719 -13.76701003 31.75411774 -9.9375 30.1875 C-6.17746029 27.05413357 -4.05637472 24.66504063 -2.75 19.875 C-2.67888045 15.82118592 -3.59911776 13.73744687 -5.6875 10.3125 C-6.3475 10.3125 -7.0075 10.3125 -7.6875 10.3125 C-7.6875 9.6525 -7.6875 8.9925 -7.6875 8.3125 C-15.42193572 4.67276554 -21.09084124 5.87662087 -26.5625 12.625 Z " fill="#262626" transform="translate(377.6875,143.6875)"/>
<path d="M0 0 C0.84691406 -0.020625 1.69382812 -0.04125 2.56640625 -0.0625 C8.47933841 -0.0992834 12.84828376 0.60330395 17.39453125 4.75 C21.26608462 9.72216218 22.16918322 12.9622517 21.75 19.25 C20.07851476 24.44040153 18.27440778 27.19296772 13.75 30.25 C15.73937742 34.78662258 18.96774196 38.18309703 22.16796875 41.91015625 C22.95107422 43.06837891 22.95107422 43.06837891 23.75 44.25 C23.42 45.24 23.09 46.23 22.75 47.25 C12.86935896 48.0286845 12.86935896 48.0286845 8.875 45.25 C6.33263879 41.66078418 3.99466772 38.03386844 1.75 34.25 C1.42 38.21 1.09 42.17 0.75 46.25 C-2.77059568 47.42353189 -5.556493 47.45146402 -9.25 47.25 C-11.25 45.25 -11.25 45.25 -11.49050903 43.33908081 C-11.48606781 42.56186676 -11.48162659 41.78465271 -11.47705078 40.98388672 C-11.47689972 40.10312469 -11.47674866 39.22236267 -11.47659302 38.31491089 C-11.46627045 37.36278717 -11.45594788 36.41066345 -11.4453125 35.4296875 C-11.4424826 34.45589142 -11.43965271 33.48209534 -11.43673706 32.47879028 C-11.42551913 29.36073651 -11.4004117 26.24296732 -11.375 23.125 C-11.36497228 21.01432706 -11.35584607 18.90364962 -11.34765625 16.79296875 C-11.32557458 11.61188165 -11.29208129 6.43096115 -11.25 1.25 C-7.76804525 -0.49097738 -3.8362701 0.02293734 0 0 Z M0.75 10.25 C0.75 14.21 0.75 18.17 0.75 22.25 C2.668125 22.0953125 2.668125 22.0953125 4.625 21.9375 C5.34429687 21.87949219 6.06359375 21.82148438 6.8046875 21.76171875 C9.14519216 21.37606964 9.14519216 21.37606964 10.75 18.25 C10.59172822 14.64132451 10.59172822 14.64132451 9.75 11.25 C6.79335481 9.7716774 4.00770263 10.18967217 0.75 10.25 Z " fill="#202020" transform="translate(311.25,138.75)"/>
<path d="M0 0 C3.02138567 -0.08149592 6.04053905 -0.14073421 9.0625 -0.1875 C9.91005859 -0.21263672 10.75761719 -0.23777344 11.63085938 -0.26367188 C18.74506777 -0.34607583 23.51525756 0.67730598 28.875 5.6875 C32.20920827 10.88494231 32.44853617 14.75731913 31.25 20.75 C29.72047797 24.72675728 28.68474368 27.19871947 24.7578125 29.06640625 C20.23880135 30.59621314 15.74619836 30.65690132 11 31 C11 35.95 11 40.9 11 46 C8.59454362 47.20272819 7.05003047 47.10071472 4.375 47.0625 C3.14910156 47.04896484 3.14910156 47.04896484 1.8984375 47.03515625 C1.27195312 47.02355469 0.64546875 47.01195312 0 47 C-1.14818825 44.7036235 -1.12669904 43.41002269 -1.12939453 40.85742188 C-1.13254669 40.00313599 -1.13569885 39.1488501 -1.13894653 38.26867676 C-1.1369223 37.34470093 -1.13489807 36.4207251 -1.1328125 35.46875 C-1.13376923 34.52189331 -1.13472595 33.57503662 -1.13571167 32.5994873 C-1.13639286 30.59545831 -1.1345428 28.59142711 -1.13037109 26.58740234 C-1.125022 23.5126451 -1.13031814 20.43803393 -1.13671875 17.36328125 C-1.13605796 15.41927051 -1.13477677 13.47525986 -1.1328125 11.53125 C-1.13483673 10.60727417 -1.13686096 9.68329834 -1.13894653 8.73132324 C-1.13579437 7.87703735 -1.13264221 7.02275146 -1.12939453 6.14257812 C-1.12859894 5.38916138 -1.12780334 4.63574463 -1.12698364 3.85949707 C-1 2 -1 2 0 0 Z M11 9 C11 13.29 11 17.58 11 22 C15.91881874 21.71756411 15.91881874 21.71756411 20 19.25 C21.18351258 17.01985732 21.18351258 17.01985732 20.9375 14.4375 C19.78464398 11.44007435 18.82976458 10.49348686 16 9 C14.35 9 12.7 9 11 9 Z " fill="#1D1D1D" transform="translate(263,139)"/>
<path d="M0 0 C2.19260973 3.2889146 2.2416602 4.18646287 2.20254517 7.99235535 C2.19688034 9.02300613 2.19121552 10.05365692 2.18537903 11.11553955 C2.16056709 12.81054596 2.16056709 12.81054596 2.13525391 14.53979492 C2.12579239 15.73016861 2.11633087 16.9205423 2.10658264 18.14698792 C2.0786564 21.411299 2.04174125 24.67536117 2.00085878 27.93953109 C1.96024992 31.3507591 1.93109122 34.76208433 1.90072632 38.17341614 C1.8414815 44.63328843 1.77191525 51.09300683 1.69865549 57.55273372 C1.61575358 64.90688082 1.54433539 72.26112535 1.47388959 79.61540067 C1.32871912 94.74374392 1.16910192 109.87190391 1 125 C1.66 125 2.32 125 3 125 C3.40089844 123.7521875 3.80179687 122.504375 4.21484375 121.21875 C6.10538048 115.55269042 8.30867778 110.02976936 10.5625 104.5 C10.96146484 103.4996875 11.36042969 102.499375 11.77148438 101.46875 C12.15755859 100.52 12.54363281 99.57125 12.94140625 98.59375 C13.28888916 97.73458984 13.63637207 96.87542969 13.99438477 95.99023438 C15 94 15 94 17 93 C17.52478406 94.24477292 18.04951086 95.48956998 18.57421875 96.734375 C18.9101001 97.53101563 19.24598145 98.32765625 19.59204102 99.1484375 C20.32430808 100.88746979 21.05525853 102.62705704 21.78491211 104.3671875 C23.39218157 108.1986148 25.00196377 112.02693544 26.6796875 115.828125 C27.13601563 116.87484375 27.59234375 117.9215625 28.0625 119 C28.46597656 119.9075 28.86945313 120.815 29.28515625 121.75 C30 124 30 124 29 127 C27.1875 126.9375 27.1875 126.9375 25 126 C23.25 122.4375 23.25 122.4375 22 119 C18.04 119 14.08 119 10 119 C9.71125 119.94875 9.4225 120.8975 9.125 121.875 C8 125 8 125 6 127 C3.375 126.625 3.375 126.625 1 126 C1.05329468 127.16571533 1.05329468 127.16571533 1.10766602 128.35498047 C1.26485529 131.86142966 1.41378153 135.36818176 1.5625 138.875 C1.61857422 140.09832031 1.67464844 141.32164062 1.73242188 142.58203125 C1.78076172 143.74863281 1.82910156 144.91523438 1.87890625 146.1171875 C1.9260376 147.19597168 1.97316895 148.27475586 2.02172852 149.38623047 C2 152 2 152 1 154 C0.34 153.67 -0.32 153.34 -1 153 C-1 104.49 -1 55.98 -1 6 C-3.64 8.64 -6.28 11.28 -9 14 C-12 16 -12 16 -14 17 C-12.64054005 13.93284405 -11.11992465 11.92258958 -8.6875 9.625 C-5.54073234 6.57698028 -2.7458279 3.41148314 0 0 Z M16 103 C15.3291288 104.6232687 14.66342971 106.24867578 14 107.875 C13.62875 108.77992188 13.2575 109.68484375 12.875 110.6171875 C11.88509774 112.88983858 11.88509774 112.88983858 12 115 C14.97 115 17.94 115 21 115 C19.68 111.04 18.36 107.08 17 103 C16.67 103 16.34 103 16 103 Z " fill="#0E0E0E" transform="translate(258,101)"/>
<path d="M0 0 C4.95 0 9.9 0 15 0 C20 5 20 5 20.6640625 7.0625 C20.58139584 11.1627665 20.31654952 12.60847822 17.625 15.9375 C15 18 15 18 13 19 C15.64 22.3 18.28 25.6 21 29 C18 31 18 31 16.015625 30.90234375 C13.26926695 29.67286951 12.34903221 28.08622508 10.75 25.5625 C10.22921875 24.75941406 9.7084375 23.95632812 9.171875 23.12890625 C8 21 8 21 8 19 C6.68 18.67 5.36 18.34 4 18 C4 21.96 4 25.92 4 30 C2.68 30 1.36 30 0 30 C0 20.1 0 10.2 0 0 Z M4 3 C4 6.96 4 10.92 4 15 C10.05856274 14.90728942 10.05856274 14.90728942 15.125 12.1875 C16.12766554 10.0735044 16.12766554 10.0735044 16 7.9375 C14.53005512 5.08948179 12.90468684 4.29097193 10 3 C8.02 3 6.04 3 4 3 Z " fill="#444444" transform="translate(368,197)"/>
<path d="M0 0 C0.66 0.33 1.32 0.66 2 1 C2.37890625 3.87109375 2.37890625 3.87109375 2.5625 7.4375 C2.66007452 11.8784668 2.66007452 11.8784668 4 16 C3.34 16 2.68 16 2 16 C2 16.66 2 17.32 2 18 C-4.625 18.25 -4.625 18.25 -8 16 C-7.67 16.33 -7.34 16.66 -7 17 C-10 18 -10 18 -12.5 17.0625 C-17.43147302 15.56544569 -21.85386833 15.87448459 -27 16 C-26.67 12.04 -26.34 8.08 -26 4 C-26.66 3.67 -27.32 3.34 -28 3 C-27 2 -27 2 -23.4375 1.9375 C-22.303125 1.958125 -21.16875 1.97875 -20 2 C-20 5.74161103 -20.51338171 9.28953557 -21 13 C-20.34 13 -19.68 13 -19 13 C-18.67 12.01 -18.34 11.02 -18 10 C-17.34 10 -16.68 10 -16 10 C-16.061875 8.8553125 -16.061875 8.8553125 -16.125 7.6875 C-16 5 -16 5 -14 2 C-10.73045798 2.56371414 -9.17424117 3.49962266 -7 6 C-5.68 5.34 -4.36 4.68 -3 4 C-3 3.01 -3 2.02 -3 1 C-2.01 0.67 -1.02 0.34 0 0 Z M-10 8 C-10.33 9.65 -10.66 11.3 -11 13 C-10.34 13 -9.68 13 -9 13 C-8.67 11.35 -8.34 9.7 -8 8 C-8.66 8 -9.32 8 -10 8 Z M-4 8 C-4 9.65 -4 11.3 -4 13 C-3.01 13.495 -3.01 13.495 -2 14 C-2 12.02 -2 10.04 -2 8 C-2.66 8 -3.32 8 -4 8 Z " fill="#6F6F6F" transform="translate(334,240)"/>
<path d="M0 0 C2.42726956 1.44934071 3.34963458 2.64233511 5 5 C4.67 5.99 4.34 6.98 4 8 C1.0280615 6.87548273 -1.33440687 5.77706209 -4 4 C-7.63939932 4.31730524 -7.63939932 4.31730524 -11 5 C-11.33 6.32 -11.66 7.64 -12 9 C-10.5459375 9.61875 -10.5459375 9.61875 -9.0625 10.25 C-8.11503906 10.66185547 -8.11503906 10.66185547 -7.1484375 11.08203125 C-5.64176313 11.72579212 -4.12503308 12.34628169 -2.6015625 12.94921875 C-1.80492187 13.27535156 -1.00828125 13.60148438 -0.1875 13.9375 C0.56144531 14.23527344 1.31039063 14.53304687 2.08203125 14.83984375 C4.44787909 16.27091668 5.08344957 17.41699423 6 20 C5.85657596 23.44217705 5.46141534 25.38737384 3.37890625 28.15234375 C-0.65117298 31.28243813 -4.77174657 30.59403963 -9.69140625 30.4609375 C-12.78742171 30.02961539 -14.16252065 29.80378459 -16.375 27.6875 C-18 25 -18 25 -18 22 C-15.625 21.8125 -15.625 21.8125 -13 22 C-12.34 22.99 -11.68 23.98 -11 25 C-7.4440159 25.85607025 -5.0211441 26.39274773 -1.5625 25.0625 C-1.046875 24.711875 -0.53125 24.36125 0 24 C-0.495 21.525 -0.495 21.525 -1 19 C-2.22976563 18.61908203 -2.22976563 18.61908203 -3.484375 18.23046875 C-4.56203125 17.88628906 -5.6396875 17.54210937 -6.75 17.1875 C-7.81734375 16.85105469 -8.8846875 16.51460937 -9.984375 16.16796875 C-12.84761819 15.05901834 -14.81156895 14.14164749 -17 12 C-17.65087039 7.44390728 -17.89274485 5.27534979 -15.25 1.5 C-10.24129187 -0.81171145 -5.41502915 -0.90499797 0 0 Z " fill="#494949" transform="translate(309,197)"/>
<path d="M0 0 C1.47956693 18.65518924 1.47956693 18.65518924 -2.00390625 24.17578125 C-4.25355682 26.10153847 -6.36953435 27.64823293 -9 29 C-12.32302186 27.43622501 -14.56184007 25.78646849 -17 23 C-17 22.34 -17 21.68 -17 21 C-17.99 20.67 -18.98 20.34 -20 20 C-18.63757574 16.93286756 -17.10300295 14.88159707 -14.6875 12.5625 C-14.06488281 11.95921875 -13.44226563 11.3559375 -12.80078125 10.734375 C-11.90939453 9.87585938 -11.90939453 9.87585938 -11 9 C-10.13375 8.113125 -9.2675 7.22625 -8.375 6.3125 C-1.89189189 0 -1.89189189 0 0 0 Z " fill="#353535" transform="translate(217,216)"/>
<path d="M0 0 C0.33 0.66 0.66 1.32 1 2 C2.175625 1.938125 3.35125 1.87625 4.5625 1.8125 C8.94091734 1.78933377 12.00403568 3.22401586 16 5 C19.21160696 5.50265692 19.21160696 5.50265692 22 5 C22.66 4.01 23.32 3.02 24 2 C24.99 2 25.98 2 27 2 C27 2.99 27 3.98 27 5 C27.99 5 28.98 5 30 5 C30 5.99 30 6.98 30 8 C29.01 8 28.02 8 27 8 C27 9.65 27 11.3 27 13 C28.32 13.33 29.64 13.66 31 14 C29.75 15.5625 29.75 15.5625 28 17 C25.9375 17.0625 25.9375 17.0625 24 16 C22.75 12.9375 22.75 12.9375 22 10 C21.5875 11.134375 21.175 12.26875 20.75 13.4375 C19 17 19 17 16.8125 17.9375 C15.9153125 17.9684375 15.9153125 17.9684375 15 18 C12 13.375 12 13.375 12 10 C10.02 10.99 8.04 11.98 6 13 C6.33 13.99 6.66 14.98 7 16 C4.36 16 1.72 16 -1 16 C-1.02701408 13.89590361 -1.04640223 11.79170822 -1.0625 9.6875 C-1.07410156 8.51574219 -1.08570313 7.34398437 -1.09765625 6.13671875 C-1 3 -1 3 0 0 Z M5 5 C5 6.32 5 7.64 5 9 C5.66 9 6.32 9 7 9 C7 7.68 7 6.36 7 5 C6.34 5 5.68 5 5 5 Z M16 7 C16.99 8.485 16.99 8.485 18 10 C18 9.01 18 8.02 18 7 C17.34 7 16.68 7 16 7 Z " fill="#8E8E8E" transform="translate(273,240)"/>
<path d="M0 0 C0.66 0.33 1.32 0.66 2 1 C2 1.66 2 2.32 2 3 C2.66 3 3.32 3 4 3 C5.33203125 4.390625 5.33203125 4.390625 6.8125 6.25 C9.30253662 9.26233698 11.87341322 11.63393433 15 14 C16.8125 15.5 16.8125 15.5 18 17 C18 18.32 18 19.64 18 21 C17.34 21 16.68 21 16 21 C16 21.66 16 22.32 16 23 C14.125 25.125 14.125 25.125 12 27 C11.34 27 10.68 27 10 27 C10 27.66 10 28.32 10 29 C5.7141418 26.95119403 1.91534934 24.83717183 -1 21 C-1.85814929 17.51739244 -1.7144875 14.24952449 -1.5 10.6875 C-1.47679688 9.76904297 -1.45359375 8.85058594 -1.4296875 7.90429688 C-1.21205357 1.21205357 -1.21205357 1.21205357 0 0 Z " fill="#2F2F2F" transform="translate(102,216)"/>
<path d="M0 0 C1.10601562 -0.00580078 1.10601562 -0.00580078 2.234375 -0.01171875 C7.7466804 -0.0016598 7.7466804 -0.0016598 10 1.125 C10 2.115 10 3.105 10 4.125 C5.05 4.125 0.1 4.125 -5 4.125 C-4.67 7.425 -4.34 10.725 -4 14.125 C0.62 14.125 5.24 14.125 10 14.125 C9.67 15.445 9.34 16.765 9 18.125 C4.71 17.795 0.42 17.465 -4 17.125 C-4.33 20.755 -4.66 24.385 -5 28.125 C-0.05 28.125 4.9 28.125 10 28.125 C10 29.115 10 30.105 10 31.125 C6.42914986 32.31528338 3.1539317 32.30898398 -0.5625 32.3125 C-1.24763672 32.32474609 -1.93277344 32.33699219 -2.63867188 32.34960938 C-4.42734112 32.35487533 -6.21548848 32.24700021 -8 32.125 C-10 30.125 -10 30.125 -10.22705078 27.23583984 C-10.21657715 26.03137207 -10.20610352 24.8269043 -10.1953125 23.5859375 C-10.18564453 21.63300781 -10.18564453 21.63300781 -10.17578125 19.640625 C-10.15906929 18.26041405 -10.14213939 16.88020571 -10.125 15.5 C-10.11497006 14.11198548 -10.10584423 12.72396411 -10.09765625 11.3359375 C-10.07401863 7.93211974 -10.04106867 4.52864494 -10 1.125 C-6.84150315 -0.45424842 -3.4634872 -0.01816514 0 0 Z " fill="#000000" transform="translate(350,195.875)"/>
<path d="M0 0 C5.94 0.33 11.88 0.66 18 1 C18 1.99 18 2.98 18 4 C15.69 4 13.38 4 11 4 C11.33 12.91 11.66 21.82 12 31 C10.68 31.33 9.36 31.66 8 32 C6 30 6 30 5.77294922 27.47802734 C5.78342285 26.4411377 5.79389648 25.40424805 5.8046875 24.3359375 C5.81435547 22.65371094 5.81435547 22.65371094 5.82421875 20.9375 C5.84097656 19.761875 5.85773438 18.58625 5.875 17.375 C5.88402344 16.19164062 5.89304687 15.00828125 5.90234375 13.7890625 C5.92597188 10.85917477 5.95891486 7.9296866 6 5 C3.69 4.67 1.38 4.34 -1 4 C-0.67 2.68 -0.34 1.36 0 0 Z " fill="#010101" transform="translate(318,196)"/>
<path d="M0 0 C2.15814546 3.23721819 2.24278378 4.04250031 2.20254517 7.76457214 C2.19688034 8.74473801 2.19121552 9.72490387 2.18537903 10.73477173 C2.16056709 12.34562149 2.16056709 12.34562149 2.13525391 13.98901367 C2.12579239 15.12086594 2.11633087 16.2527182 2.10658264 17.41886902 C2.07284226 21.16873105 2.02474348 24.91826672 1.9765625 28.66796875 C1.95040188 31.26442099 1.92513436 33.86088238 1.90072632 36.45735168 C1.84083467 42.59848337 1.77192037 48.73945339 1.69865549 54.88043815 C1.61574678 61.87183123 1.54433216 68.86332687 1.47388959 75.85485494 C1.32872839 90.23671953 1.16911129 104.6183981 1 119 C0.67 119 0.34 119 0 119 C-0.495 63.065 -0.495 63.065 -1 6 C-3.64 8.64 -6.28 11.28 -9 14 C-12 16 -12 16 -14 17 C-12.64054005 13.93284405 -11.11992465 11.92258958 -8.6875 9.625 C-5.54073234 6.57698028 -2.7458279 3.41148314 0 0 Z " fill="#303030" transform="translate(258,101)"/>
<path d="M0 0 C1.134375 0.020625 2.26875 0.04125 3.4375 0.0625 C3.4375 3.80411103 2.92411829 7.35203557 2.4375 11.0625 C3.0975 11.0625 3.7575 11.0625 4.4375 11.0625 C4.7675 10.0725 5.0975 9.0825 5.4375 8.0625 C6.0975 8.0625 6.7575 8.0625 7.4375 8.0625 C7.375625 6.9178125 7.375625 6.9178125 7.3125 5.75 C7.4375 3.0625 7.4375 3.0625 9.4375 0.0625 C11.25 0.25 11.25 0.25 13.4375 1.0625 C15.1875 3.625 15.1875 3.625 16.4375 6.0625 C15.7775 6.0625 15.1175 6.0625 14.4375 6.0625 C14.4375 5.4025 14.4375 4.7425 14.4375 4.0625 C13.1175 4.3925 11.7975 4.7225 10.4375 5.0625 C10.31375 6.361875 10.19 7.66125 10.0625 9 C9.8515625 11.21484375 9.8515625 11.21484375 9.4375 13.0625 C5.58604957 14.98822521 0.63706748 14.11133218 -3.5625 14.0625 C-3.2325 10.1025 -2.9025 6.1425 -2.5625 2.0625 C-3.2225 1.7325 -3.8825 1.4025 -4.5625 1.0625 C-3.5625 0.0625 -3.5625 0.0625 0 0 Z " fill="#C5C5C5" transform="translate(310.5625,241.9375)"/>
<path d="M0 0 C2.47186455 2.96346786 3.66248361 5.54041689 4.6875 9.25 C5.06455078 10.58804688 5.06455078 10.58804688 5.44921875 11.953125 C5.63097656 12.62859375 5.81273437 13.3040625 6 14 C5.01 13.34 4.02 12.68 3 12 C3.99 15.3 4.98 18.6 6 22 C3.38952199 20.694761 3.31933577 19.64173426 2.375 16.9375 C2.11460937 16.20402344 1.85421875 15.47054687 1.5859375 14.71484375 C1.39257812 14.14894531 1.19921875 13.58304688 1 13 C-1.14809286 13.78857567 -1.14809286 13.78857567 -1.640625 15.7421875 C-1.84171875 16.44601563 -2.0428125 17.14984375 -2.25 17.875 C-3.4740368 21.41392505 -3.80792817 21.87948434 -7.1875 24 C-8.115625 24.33 -9.04375 24.66 -10 25 C-7.80829335 16.1288064 -3.97839741 8.17478919 0 0 Z " fill="#747474" transform="translate(274,194)"/>
<path d="M0 0 C4.60162282 0.57520285 11.58214064 1.58214064 15 5 C15.04080783 6.99958364 15.04254356 9.00045254 15 11 C15.66 11 16.32 11 17 11 C17.33 9.35 17.66 7.7 18 6 C18.8125 7.625 18.8125 7.625 19 10 C16.95328341 14.25717051 16.95328341 14.25717051 14 16 C8.74098999 16.89635093 2.86199698 17.45862395 -2.0234375 14.96875 C-3.375 13.6875 -3.375 13.6875 -5 11 C-5 10.01 -5 9.02 -5 8 C-2.625 7.8125 -2.625 7.8125 0 8 C0.99 9.485 0.99 9.485 2 11 C5.5559841 11.85607025 7.9788559 12.39274773 11.4375 11.0625 C11.953125 10.711875 12.46875 10.36125 13 10 C12.67 8.35 12.34 6.7 12 5 C8.04 3.68 4.08 2.36 0 1 C0 0.67 0 0.34 0 0 Z " fill="#757575" transform="translate(296,211)"/>
<path d="M0 0 C4.29 0 8.58 0 13 0 C13 0.33 13 0.66 13 1 C9.04 1 5.08 1 1 1 C1.33 4.3 1.66 7.6 2 11 C6.62 11 11.24 11 16 11 C15.67 12.32 15.34 13.64 15 15 C10.71 14.67 6.42 14.34 2 14 C1.67 17.63 1.34 21.26 1 25 C5.95 25 10.9 25 16 25 C15.67 25.99 15.34 26.98 15 28 C15 27.34 15 26.68 15 26 C10.05 26 5.1 26 0 26 C0 17.42 0 8.84 0 0 Z " fill="#424242" transform="translate(344,199)"/>
<path d="M0 0 C0.33 0.66 0.66 1.32 1 2 C2.7015625 1.87625 2.7015625 1.87625 4.4375 1.75 C9.56486617 1.71331044 13.52078524 3.6774442 18 6 C17.67 6.66 17.34 7.32 17 8 C17.39938767 10.09821215 17.39938767 10.09821215 18 12 C17.34 12 16.68 12 16 12 C15.938125 11.21625 15.87625 10.4325 15.8125 9.625 C15.544375 8.75875 15.27625 7.8925 15 7 C12.60470331 5.67518454 12.60470331 5.67518454 10 5 C9.34 4.67 8.68 4.34 8 4 C8 5.65 8 7.3 8 9 C6.68 9.33 5.36 9.66 4 10 C4 7.69 4 5.38 4 3 C3.01 3 2.02 3 1 3 C1.33 5.97 1.66 8.94 2 12 C2.94875 11.649375 3.8975 11.29875 4.875 10.9375 C8 10 8 10 10 11 C8.02 11.99 8.02 11.99 6 13 C6.33 13.99 6.66 14.98 7 16 C4.36 16 1.72 16 -1 16 C-1.02701408 13.89590361 -1.04640223 11.79170822 -1.0625 9.6875 C-1.07410156 8.51574219 -1.08570313 7.34398437 -1.09765625 6.13671875 C-1 3 -1 3 0 0 Z M5 5 C5 6.32 5 7.64 5 9 C5.66 9 6.32 9 7 9 C7 7.68 7 6.36 7 5 C6.34 5 5.68 5 5 5 Z " fill="#B7B7B7" transform="translate(273,240)"/>
<path d="M0 0 C0.33 0.66 0.66 1.32 1 2 C3.31 2.66 5.62 3.32 8 4 C8 12.58 8 21.16 8 30 C8.66 30 9.32 30 10 30 C10 21.42 10 12.84 10 4 C10.33 4 10.66 4 11 4 C11.33 12.91 11.66 21.82 12 31 C10.68 31.33 9.36 31.66 8 32 C6 30 6 30 5.77294922 27.47802734 C5.78342285 26.4411377 5.79389648 25.40424805 5.8046875 24.3359375 C5.81435547 22.65371094 5.81435547 22.65371094 5.82421875 20.9375 C5.84097656 19.761875 5.85773438 18.58625 5.875 17.375 C5.88402344 16.19164062 5.89304687 15.00828125 5.90234375 13.7890625 C5.92597188 10.85917477 5.95891486 7.9296866 6 5 C3.69 4.67 1.38 4.34 -1 4 C-0.67 2.68 -0.34 1.36 0 0 Z " fill="#8E8E8E" transform="translate(318,196)"/>
<path d="M0 0 C0.66 0.33 1.32 0.66 2 1 C2.37890625 3.87109375 2.37890625 3.87109375 2.5625 7.4375 C2.66007452 11.8784668 2.66007452 11.8784668 4 16 C3.34 16 2.68 16 2 16 C2 16.66 2 17.32 2 18 C-0.31 18 -2.62 18 -5 18 C-5.33 17.34 -5.66 16.68 -6 16 C-5.34 15.67 -4.68 15.34 -4 15 C-4.33 14.67 -4.66 14.34 -5 14 C-5.04080783 12.00041636 -5.04254356 9.99954746 -5 8 C-3.68 7.67 -2.36 7.34 -1 7 C-1 9.31 -1 11.62 -1 14 C-0.34 14 0.32 14 1 14 C1 10.04 1 6.08 1 2 C0.01 2.495 0.01 2.495 -1 3 C-1 3.99 -1 4.98 -1 6 C-2.32 5.67 -3.64 5.34 -5 5 C-4.34 4.67 -3.68 4.34 -3 4 C-3 3.01 -3 2.02 -3 1 C-2.01 0.67 -1.02 0.34 0 0 Z M-4 8 C-4 9.65 -4 11.3 -4 13 C-3.01 13.495 -3.01 13.495 -2 14 C-2 12.02 -2 10.04 -2 8 C-2.66 8 -3.32 8 -4 8 Z " fill="#A4A4A4" transform="translate(334,240)"/>
<path d="M0 0 C0.66 0.99 1.32 1.98 2 3 C2.66 3 3.32 3 4 3 C3.34 4.98 2.68 6.96 2 9 C-0.97 8.505 -0.97 8.505 -4 8 C-3.96447021 8.77714355 -3.92894043 9.55428711 -3.89233398 10.35498047 C-3.73514471 13.86142966 -3.58621847 17.36818176 -3.4375 20.875 C-3.38142578 22.09832031 -3.32535156 23.32164062 -3.26757812 24.58203125 C-3.21923828 25.74863281 -3.17089844 26.91523438 -3.12109375 28.1171875 C-3.05039673 29.73536377 -3.05039673 29.73536377 -2.97827148 31.38623047 C-3 34 -3 34 -4 36 C-4.66 35.67 -5.32 35.34 -6 35 C-5.67 23.78 -5.34 12.56 -5 1 C-4.67 1 -4.34 1 -4 1 C-4 2.98 -4 4.96 -4 7 C-3.34 7 -2.68 7 -2 7 C-1.34 4.69 -0.68 2.38 0 0 Z " fill="#646464" transform="translate(263,219)"/>
<path d="M0 0 C0.99 0 1.98 0 3 0 C3 2.31 3 4.62 3 7 C3.99 6.67 4.98 6.34 6 6 C6.33 4.35 6.66 2.7 7 1 C11.75 2.875 11.75 2.875 14 4 C14.625 6.5625 14.625 6.5625 15 9 C14.01 9 13.02 9 12 9 C11.34 8.01 10.68 7.02 10 6 C9.01 6.66 8.02 7.32 7 8 C4.3125 8.125 4.3125 8.125 2 8 C1.67 8.99 1.34 9.98 1 11 C-0.20272819 8.59454362 -0.10071472 7.05003047 -0.0625 4.375 C-0.05347656 3.55773437 -0.04445313 2.74046875 -0.03515625 1.8984375 C-0.02355469 1.27195313 -0.01195312 0.64546875 0 0 Z " fill="#292929" transform="translate(274,243)"/>
<path d="M0 0 C1.32 0.33 2.64 0.66 4 1 C3.01 1.495 3.01 1.495 2 2 C4.64 5.3 7.28 8.6 10 12 C7 14 7 14 5.015625 13.91015625 C2.2424449 12.6579257 1.33964356 11.00260666 -0.25 8.4375 C-0.77078125 7.61121094 -1.2915625 6.78492188 -1.828125 5.93359375 C-2.21484375 5.29550781 -2.6015625 4.65742188 -3 4 C-2.01 3.67 -1.02 3.34 0 3 C0 2.01 0 1.02 0 0 Z " fill="#808080" transform="translate(379,214)"/>
<path d="M0 0 C13.70731707 0.70731707 13.70731707 0.70731707 18 5 C18.23529412 10.52941176 18.23529412 10.52941176 17 13 C16.34 13 15.68 13 15 13 C14.938125 11.9275 14.87625 10.855 14.8125 9.75 C14.40725809 7.73181423 14.40725809 7.73181423 13 6 C8.79655754 4.11794254 4.48332658 3.01664166 0 2 C0 1.34 0 0.68 0 0 Z " fill="#3F3F3F" transform="translate(296,209)"/>
<path d="M0 0 C0.99 0 1.98 0 3 0 C3 3.96 3 7.92 3 12 C2.34 12 1.68 12 1 12 C1 9.69 1 7.38 1 5 C0.01 5.33 -0.98 5.66 -2 6 C-2.20970559 10.14093698 -2.20970559 10.14093698 -1 14 C-4.875 13.125 -4.875 13.125 -6 12 C-6.23529412 6.47058824 -6.23529412 6.47058824 -5 4 C-3.02 4 -1.04 4 1 4 C0.67 2.68 0.34 1.36 0 0 Z " fill="#292929" transform="translate(332,242)"/>
<path d="M0 0 C2 1 2 1 2.8515625 3.28515625 C3.10679687 4.20167969 3.36203125 5.11820313 3.625 6.0625 C4.01558594 7.44115234 4.01558594 7.44115234 4.4140625 8.84765625 C4.60742188 9.55792969 4.80078125 10.26820313 5 11 C3.68 11.33 2.36 11.66 1 12 C-0.32 9.36 -1.64 6.72 -3 4 C-6.96 4 -10.92 4 -15 4 C-15.33 4.66 -15.66 5.32 -16 6 C-16 4.68 -16 3.36 -16 2 C-11.38 2 -6.76 2 -2 2 C-1.34 3.98 -0.68 5.96 0 8 C0.66 8 1.32 8 2 8 C1.34 5.36 0.68 2.72 0 0 Z " fill="#8B8B8B" transform="translate(283,216)"/>
<path d="M0 0 C0 2.92828926 -0.13970066 5.20402714 -1 8 C-2.875 9.0625 -2.875 9.0625 -5 10 C-6.63676257 11.9600281 -6.63676257 11.9600281 -8 14 C-10.40921705 16.40921705 -12.94334509 17.53812156 -16 19 C-14.60366893 15.81440048 -12.95442507 13.76056155 -10.4375 11.375 C-7.85984611 8.95478041 -7.85984611 8.95478041 -6 6 C-5.34 6 -4.68 6 -4 6 C-3.566875 5.071875 -3.566875 5.071875 -3.125 4.125 C-2 2 -2 2 0 0 Z " fill="#616161" transform="translate(144,296)"/>
<path d="M0 0 C1.32 0.33 2.64 0.66 4 1 C3.67 4.3 3.34 7.6 3 11 C4.32 11 5.64 11 7 11 C7 10.34 7 9.68 7 9 C7.66 9 8.32 9 9 9 C9 10.32 9 11.64 9 13 C6.03 13 3.06 13 0 13 C0 8.71 0 4.42 0 0 Z " fill="#343434" transform="translate(309,243)"/>
<path d="M0 0 C0.93423645 3.01031744 1.04449911 3.86650268 0 7 C-1.64421168 8.0365065 -3.31495912 9.03128177 -5 10 C-6.63505872 11.35951623 -8.24013212 12.75594118 -9.8125 14.1875 C-10.60269531 14.90292969 -11.39289063 15.61835938 -12.20703125 16.35546875 C-12.79871094 16.89816406 -13.39039062 17.44085938 -14 18 C-14 15 -14 15 -12.125 13.0625 C-11.42375 12.381875 -10.7225 11.70125 -10 11 C-9.67 10.278125 -9.34 9.55625 -9 8.8125 C-8.67 8.214375 -8.34 7.61625 -8 7 C-6.66666667 6.66666667 -5.33333333 6.33333333 -4 6 C-2.83333333 4.08333333 -2.83333333 4.08333333 -2 2 C-1.34 1.34 -0.68 0.68 0 0 Z " fill="#494949" transform="translate(135,238)"/>
<path d="M0 0 C0.99 0.33 1.98 0.66 3 1 C2.67 1.66 2.34 2.32 2 3 C1.88252522 4.41882881 1.82314572 5.84271414 1.79467773 7.26611328 C1.77473251 8.14687531 1.75478729 9.02763733 1.73423767 9.93508911 C1.71752518 10.88721283 1.70081268 11.83933655 1.68359375 12.8203125 C1.66281265 13.79410858 1.64203156 14.76790466 1.62062073 15.77120972 C1.55511402 18.88906647 1.49623503 22.00700903 1.4375 25.125 C1.39431585 27.23568604 1.3507016 29.34636333 1.30664062 31.45703125 C1.19943153 36.6379295 1.09766722 41.81891356 1 47 C0.67 47 0.34 47 0 47 C-0.16783252 40.46736699 -0.32779476 33.93457595 -0.48217773 27.40161133 C-0.53568392 25.17728264 -0.59101963 22.9529972 -0.64819336 20.72875977 C-0.7298646 17.53932018 -0.80504388 14.34978501 -0.87890625 11.16015625 C-0.91945885 9.65860741 -0.91945885 9.65860741 -0.96083069 8.12672424 C-0.98092697 7.20584518 -1.00102325 6.28496613 -1.02172852 5.33618164 C-1.04171402 4.52121719 -1.06169952 3.70625275 -1.08229065 2.86659241 C-1 1 -1 1 0 0 Z " fill="#CFCFCF" transform="translate(101,254)"/>
<path d="M0 0 C0.99 0.33 1.98 0.66 3 1 C3.35095944 4.77281397 3.24849965 6.59175057 1.25 9.875 C-1 12 -1 12 -5 12 C-4.67 13.32 -4.34 14.64 -4 16 C-4.66 16.33 -5.32 16.66 -6 17 C-6 16.34 -6 15.68 -6 15 C-6.66 15 -7.32 15 -8 15 C-8.33 14.01 -8.66 13.02 -9 12 C-8.15115234 11.70609375 -8.15115234 11.70609375 -7.28515625 11.40625 C-4.93692334 10.44879827 -3.01395343 9.54985 -1 8 C0.0451509 5.16238823 0 3.08209291 0 0 Z " fill="#121212" transform="translate(384,202)"/>
<path d="M0 0 C5.61 0 11.22 0 17 0 C17 0.99 17 1.98 17 3 C10.88909517 3.09945415 5.02596573 3.0712828 -1 2 C-0.67 1.34 -0.34 0.68 0 0 Z " fill="#111111" transform="translate(319,197)"/>
<path d="M0 0 C0.66 0.33 1.32 0.66 2 1 C2 1.99 2 2.98 2 4 C3.65 4 5.3 4 7 4 C7.66 2.68 8.32 1.36 9 0 C9.3669579 6.48292295 9.3669579 6.48292295 7.625 8.9375 C6 10 6 10 4 10 C1.95830515 7.09451118 1 5.59857954 1 2 C0.34 1.67 -0.32 1.34 -1 1 C-0.67 0.67 -0.34 0.34 0 0 Z " fill="#7F7F7F" transform="translate(284,248)"/>
<path d="M0 0 C1.85776765 3.13498292 2.20140476 5.37471432 2 9 C3.32 9.33 4.64 9.66 6 10 C4.75 11.5625 4.75 11.5625 3 13 C0.890625 12.58984375 0.890625 12.58984375 -1 12 C-1.02687279 10.18757948 -1.04633715 8.37504767 -1.0625 6.5625 C-1.07410156 5.55316406 -1.08570313 4.54382813 -1.09765625 3.50390625 C-1 1 -1 1 0 0 Z " fill="#5A5A5A" transform="translate(298,244)"/>
<path d="M0 0 C2.18975773 3.28463659 2.99806563 6.20696275 4 10 C3.01 9.34 2.02 8.68 1 8 C1.99 11.3 2.98 14.6 4 18 C1.38952199 16.694761 1.31933577 15.64173426 0.375 12.9375 C0.11460937 12.20402344 -0.14578125 11.47054687 -0.4140625 10.71484375 C-0.60742188 10.14894531 -0.80078125 9.58304688 -1 9 C-1.99 9.33 -2.98 9.66 -4 10 C-3.625 7.0625 -3.625 7.0625 -3 4 C-2.34 3.67 -1.68 3.34 -1 3 C-0.67 2.01 -0.34 1.02 0 0 Z " fill="#8B8B8B" transform="translate(276,198)"/>
<path d="M0 0 C2.88949684 0.31237804 4.58633099 0.64338879 6.8125 2.5625 C8.51209395 6.05114021 8.60951896 9.1865993 8 13 C6.5 15.5 6.5 15.5 5 17 C4.34 16.67 3.68 16.34 3 16 C3.495 15.46375 3.99 14.9275 4.5 14.375 C6.37489544 11.40641555 6.23501425 9.44687573 6 6 C5.34 5.67 4.68 5.34 4 5 C3.67 5.66 3.34 6.32 3 7 C1.35 5.68 -0.3 4.36 -2 3 C-0.68 3 0.64 3 2 3 C2 2.34 2 1.68 2 1 C1.34 0.67 0.68 0.34 0 0 Z " fill="#979797" transform="translate(380,197)"/>
<path d="M0 0 C0.66 0.33 1.32 0.66 2 1 C2 2.32 2 3.64 2 5 C1.35546875 5.59296875 0.7109375 6.1859375 0.046875 6.796875 C-2.79878759 9.85976374 -2.59756933 12.13437198 -2.75 16.25 C-2.80671875 17.51328125 -2.8634375 18.7765625 -2.921875 20.078125 C-2.94765625 21.04234375 -2.9734375 22.0065625 -3 23 C-3.33 23 -3.66 23 -4 23 C-5.77819436 15.66494828 -5.20015492 9.75262047 -2 3 C-1.34 2.01 -0.68 1.02 0 0 Z " fill="#868686" transform="translate(398,147)"/>
<path d="M0 0 C0.66 0.99 1.32 1.98 2 3 C-2.7652031 7.9240432 -7.88657333 12.44259642 -13 17 C-13 14 -13 14 -11.42578125 12.16796875 C-10.72839844 11.51441406 -10.03101563 10.86085938 -9.3125 10.1875 C-5.94109659 6.94783882 -2.91888895 3.64861118 0 0 Z " fill="#6C6C6C" transform="translate(258,101)"/>
<path d="M0 0 C0 0.66 0 1.32 0 2 C-0.66 2 -1.32 2 -2 2 C-1.86109398 6.25025618 -1.71268006 10.50012842 -1.5625 14.75 C-1.52318359 15.9565625 -1.48386719 17.163125 -1.44335938 18.40625 C-1.40146484 19.56640625 -1.35957031 20.7265625 -1.31640625 21.921875 C-1.27974854 22.99018555 -1.24309082 24.05849609 -1.20532227 25.15917969 C-1.03013091 27.58311152 -0.68801513 29.67886712 0 32 C-1.32 31.34 -2.64 30.68 -4 30 C-4 20.43 -4 10.86 -4 1 C-2 0 -2 0 0 0 Z " fill="#9F9F9F" transform="translate(344,196)"/>
<path d="M0 0 C0 0.99 0 1.98 0 3 C-1.13179688 2.98839844 -2.26359375 2.97679687 -3.4296875 2.96484375 C-4.91145669 2.95546546 -6.39322765 2.9463653 -7.875 2.9375 C-8.62136719 2.92912109 -9.36773437 2.92074219 -10.13671875 2.91210938 C-14.19845578 2.79311916 -14.19845578 2.79311916 -18 4 C-18 3.01 -18 2.02 -18 1 C-15.2162499 -0.39187505 -12.65963917 -0.38330575 -9.5625 -0.625 C-7.83193359 -0.76808594 -7.83193359 -0.76808594 -6.06640625 -0.9140625 C-3 -1 -3 -1 0 0 Z " fill="#020202" transform="translate(360,197)"/>
<path d="M0 0 C1.24546405 2.49092811 0.7767578 3.41080733 0 6 C0.66 6 1.32 6 2 6 C2.33 5.01 2.66 4.02 3 3 C3.309375 3.928125 3.309375 3.928125 3.625 4.875 C5.54775888 7.84653645 7.66594527 8.13024659 11 9 C11 9.33 11 9.66 11 10 C8.36 9.67 5.72 9.34 3 9 C3 9.66 3 10.32 3 11 C1.68 10.34 0.36 9.68 -1 9 C-1.09765625 2.84765625 -1.09765625 2.84765625 -1 1 C-0.67 0.67 -0.34 0.34 0 0 Z " fill="#7A7A7A" transform="translate(293,200)"/>
<path d="M0 0 C0.625 1.8515625 0.625 1.8515625 1 4 C-2.48810553 8.14212532 -6.85337562 11.52257148 -11 15 C-11.33 14.34 -11.66 13.68 -12 13 C-11.34 13 -10.68 13 -10 13 C-9.63261719 12.15695313 -9.63261719 12.15695313 -9.2578125 11.296875 C-7.77073461 8.58134146 -5.95937218 6.53608562 -3.875 4.25 C-3.15054688 3.45078125 -2.42609375 2.6515625 -1.6796875 1.828125 C-0.84824219 0.92320312 -0.84824219 0.92320312 0 0 Z " fill="#686868" transform="translate(231,131)"/>
<path d="M0 0 C1.79158489 -0.02696365 3.58328473 -0.04637917 5.375 -0.0625 C6.37273437 -0.07410156 7.37046875 -0.08570313 8.3984375 -0.09765625 C11 0 11 0 13 1 C13 1.66 13 2.32 13 3 C6.565 3.495 6.565 3.495 0 4 C0 2.68 0 1.36 0 0 Z " fill="#0A0A0A" transform="translate(369,197)"/>
<path d="M0 0 C2 2 2 2 2.125 4.625 C2.08375 5.40875 2.0425 6.1925 2 7 C1.01 7.33 0.02 7.66 -1 8 C-1.12375 8.94875 -1.2475 9.8975 -1.375 10.875 C-2 14 -2 14 -4 16 C-4.33 15.34 -4.66 14.68 -5 14 C-4.35987294 12.65372381 -3.68849405 11.32219445 -3 10 C-2.60100234 8.44834245 -2.24670629 6.88451519 -1.9375 5.3125 C-1.10408163 1.10408163 -1.10408163 1.10408163 0 0 Z " fill="#363636" transform="translate(274,194)"/>
<path d="M0 0 C5.28 0 10.56 0 16 0 C15.67 0.99 15.34 1.98 15 3 C12.68690295 2.88658363 10.37449815 2.75896193 8.0625 2.625 C6.13083984 2.52058594 6.13083984 2.52058594 4.16015625 2.4140625 C2.59587891 2.20910156 2.59587891 2.20910156 1 2 C0.67 1.34 0.34 0.68 0 0 Z " fill="#0B0B0B" transform="translate(343,225)"/>
<path d="M0 0 C0 4.00129336 -1.41373017 4.99433507 -4 8 C-4.91820563 9.10288722 -5.83487766 10.20705307 -6.75 11.3125 C-7.4925 12.199375 -8.235 13.08625 -9 14 C-9.99 13.67 -10.98 13.34 -12 13 C-8.04 8.71 -4.08 4.42 0 0 Z " fill="#707070" transform="translate(172,197)"/>
<path d="M0 0 C2.42604752 2.42604752 2.75843519 4.14192776 3.625 7.4375 C3.88539063 8.40558594 4.14578125 9.37367188 4.4140625 10.37109375 C5 13 5 13 5 16 C4.34 16 3.68 16 3 16 C1.35199144 12.33552568 0.66419027 9.18796534 0.375 5.1875 C0.30023438 4.21167969 0.22546875 3.23585937 0.1484375 2.23046875 C0.09945313 1.49441406 0.05046875 0.75835937 0 0 Z " fill="#454545" transform="translate(280,208)"/>
<path d="M0 0 C-1.98 0.99 -1.98 0.99 -4 2 C-3.67 2.99 -3.34 3.98 -3 5 C-5.31 5 -7.62 5 -10 5 C-9.375 3.125 -9.375 3.125 -8 1 C-2.66666667 -1.33333333 -2.66666667 -1.33333333 0 0 Z " fill="#787878" transform="translate(283,251)"/>
<path d="M0 0 C0 0.66 0 1.32 0 2 C-0.99 2 -1.98 2 -3 2 C-3.2475 2.969375 -3.495 3.93875 -3.75 4.9375 C-4.1625 5.948125 -4.575 6.95875 -5 8 C-7.125 8.875 -7.125 8.875 -9 9 C-7.67183131 4.6532661 -5.0855272 0 0 0 Z " fill="#484848" transform="translate(408,141)"/>
<path d="M0 0 C0 1.32 0 2.64 0 4 C-3.37503669 2.8141763 -5.64722731 1.72426311 -8 -1 C-4.37673261 -2.2077558 -3.35853631 -1.54311128 0 0 Z " fill="#7F7F7F" transform="translate(313,201)"/>
<path d="M0 0 C1.8125 0.1875 1.8125 0.1875 4 1 C5.75 3.5625 5.75 3.5625 7 6 C6.34 6 5.68 6 5 6 C5 5.34 5 4.68 5 4 C2.61435923 4.57584432 0.33317216 5.22227595 -2 6 C-1.49396008 3.83125748 -1.00016187 2.00032373 0 0 Z " fill="#A5A5A5" transform="translate(320,242)"/>
<path d="M0 0 C0.66 0.33 1.32 0.66 2 1 C2 1.99 2 2.98 2 4 C2.63106429 6.01151741 3.29373761 8.01363702 4 10 C0.125 9.125 0.125 9.125 -1 8 C-1.23529412 2.47058824 -1.23529412 2.47058824 0 0 Z " fill="#3D3D3D" transform="translate(327,246)"/>
<path d="M0 0 C1.65 0 3.3 0 5 0 C5.33 1.98 5.66 3.96 6 6 C4 5 2 4 0 3 C0 2.01 0 1.02 0 0 Z " fill="#4E4E4E" transform="translate(291,219)"/>
<path d="M0 0 C4.3590077 3.48720616 4.94552183 6.72760915 6 12 C5.01 12.495 5.01 12.495 4 13 C3.32942113 11.2097939 2.6636531 9.41778511 2 7.625 C1.62875 6.62726563 1.2575 5.62953125 0.875 4.6015625 C0 2 0 2 0 0 Z " fill="#080808" transform="translate(276,204)"/>
<path d="M0 0 C0.99 0 1.98 0 3 0 C3 0.99 3 1.98 3 3 C3.99 3 4.98 3 6 3 C6 3.99 6 4.98 6 6 C4.68 6 3.36 6 2 6 C1.67 5.01 1.34 4.02 1 3 C0.01 3.495 0.01 3.495 -1 4 C-0.67 2.68 -0.34 1.36 0 0 Z " fill="#979797" transform="translate(297,242)"/>
<path d="M0 0 C0 0.99 0 1.98 0 3 C-2 4.6875 -2 4.6875 -4 6 C-4 5.01 -4 4.02 -4 3 C-4.66 3 -5.32 3 -6 3 C-6 2.34 -6 1.68 -6 1 C-4 0 -4 0 0 0 Z " fill="#5A5A5A" transform="translate(183,336)"/>
<path d="M0 0 C3.65316671 1.24976756 4.78065836 1.67098753 7 5 C6.01 5.33 5.02 5.66 4 6 C2.62437146 4.71034824 1.29233607 3.37310707 0 2 C0 1.34 0 0.68 0 0 Z " fill="#4A4A4A" transform="translate(382,222)"/>
<path d="M0 0 C0.66 0.66 1.32 1.32 2 2 C-0.64 4.97 -3.28 7.94 -6 11 C-6 8 -6 8 -4.125 6.0625 C-3.42375 5.381875 -2.7225 4.70125 -2 4 C-0.76487921 1.86690808 -0.76487921 1.86690808 0 0 Z " fill="#C9C9C9" transform="translate(127,245)"/>
<path d="M0 0 C1.32 0.33 2.64 0.66 4 1 C3.34 3.97 2.68 6.94 2 10 C1.67 10 1.34 10 1 10 C0.67 6.7 0.34 3.4 0 0 Z " fill="#262626" transform="translate(309,243)"/>
<path d="M0 0 C0 0.66 0 1.32 0 2 C-0.99 2 -1.98 2 -3 2 C-2.67 3.32 -2.34 4.64 -2 6 C-2.99 6.495 -2.99 6.495 -4 7 C-4 6.34 -4 5.68 -4 5 C-4.66 5 -5.32 5 -6 5 C-6.33 4.01 -6.66 3.02 -7 2 C-2.25 0 -2.25 0 0 0 Z " fill="#090909" transform="translate(382,212)"/>
<path d="M0 0 C1.98 0.495 1.98 0.495 4 1 C4.33 2.65 4.66 4.3 5 6 C4.01 6 3.02 6 2 6 C0 3 0 3 0 0 Z " fill="#353535" transform="translate(284,246)"/>
<path d="M0 0 C1.485 0.99 1.485 0.99 3 2 C2.67 3.98 2.34 5.96 2 8 C1.34 8 0.68 8 0 8 C0 5.36 0 2.72 0 0 Z " fill="#070707" transform="translate(311,214)"/>
<path d="M0 0 C3 2 3 2 3.6875 4.125 C3.8421875 5.053125 3.8421875 5.053125 4 6 C0.52176885 7.15941038 -1.45895578 6.70820884 -5 6 C-5 5.67 -5 5.34 -5 5 C-3.02 5 -1.04 5 1 5 C0.67 3.35 0.34 1.7 0 0 Z " fill="#666666" transform="translate(436,149)"/>
<path d="M0 0 C0 0.99 0 1.98 0 3 C-2.31 2.67 -4.62 2.34 -7 2 C-5.26578631 -1.46842738 -3.40984787 -1.13661596 0 0 Z " fill="#2E2E2E" transform="translate(360,197)"/>
<path d="M0 0 C0.99 0.33 1.98 0.66 3 1 C2.01 1 1.02 1 0 1 C0 0.67 0 0.34 0 0 Z " fill="#FAFAFA" transform="translate(125,330)"/>
<path d="M0 0 C0.33 0.66 0.66 1.32 1 2 C0.34 1.67 -0.32 1.34 -1 1 C-0.67 0.67 -0.34 0.34 0 0 Z " fill="#FBFBFB" transform="translate(315,199)"/>
<path d="" fill="#FCFCFC" transform="translate(0,0)"/>
<path d="" fill="#F7F7F7" transform="translate(0,0)"/>
<path d="M0 0 C2 1 2 1 2 1 Z " fill="#F5F5F5" transform="translate(272,187)"/>
<path d="M0 0 C2 1 2 1 2 1 Z " fill="#FBFBFB" transform="translate(422,172)"/>
<path d="" fill="#F8F8F8" transform="translate(0,0)"/>
<path d="" fill="#FCFCFC" transform="translate(0,0)"/>
<path d="" fill="#F6F6F6" transform="translate(0,0)"/>
<path d="" fill="#FBFBFB" transform="translate(0,0)"/>
<path d="" fill="#F5F5F5" transform="translate(0,0)"/>
<path d="" fill="#F8F8F8" transform="translate(0,0)"/>
<path d="" fill="#F7F7F7" transform="translate(0,0)"/>
<path d="" fill="#F8F8F8" transform="translate(0,0)"/>
<path d="" fill="#FDFDFD" transform="translate(0,0)"/>
<path d="" fill="#F9F9F9" transform="translate(0,0)"/>
<path d="" fill="#F9F9F9" transform="translate(0,0)"/>
<path d="" fill="#F7F7F7" transform="translate(0,0)"/>
<path d="" fill="#F9F9F9" transform="translate(0,0)"/>
<path d="" fill="#F7F7F7" transform="translate(0,0)"/>
<path d="" fill="#FAFAFA" transform="translate(0,0)"/>
<path d="" fill="#F2F2F2" transform="translate(0,0)"/>
<path d="" fill="#F5F5F5" transform="translate(0,0)"/>
<path d="" fill="#F4F4F4" transform="translate(0,0)"/>
<path d="" fill="#F8F8F8" transform="translate(0,0)"/>
<path d="" fill="#FCFCFC" transform="translate(0,0)"/>
<path d="" fill="#F5F5F5" transform="translate(0,0)"/>
<path d="" fill="#FEFEFE" transform="translate(0,0)"/>
<path d="" fill="#F6F6F6" transform="translate(0,0)"/>
<path d="" fill="#F3F3F3" transform="translate(0,0)"/>
<path d="" fill="#F8F8F8" transform="translate(0,0)"/>
<path d="" fill="#F8F8F8" transform="translate(0,0)"/>
<path d="" fill="#FBFBFB" transform="translate(0,0)"/>
<path d="" fill="#FBFBFB" transform="translate(0,0)"/>
<path d="" fill="#FAFAFA" transform="translate(0,0)"/>
<path d="" fill="#F3F3F3" transform="translate(0,0)"/>
<path d="" fill="#F7F7F7" transform="translate(0,0)"/>
<path d="" fill="#FDFDFD" transform="translate(0,0)"/>
<path d="" fill="#F5F5F5" transform="translate(0,0)"/>
<path d="" fill="#F6F6F6" transform="translate(0,0)"/>
<path d="" fill="#FBFBFB" transform="translate(0,0)"/>
<path d="" fill="#F9F9F9" transform="translate(0,0)"/>
<path d="" fill="#F8F8F8" transform="translate(0,0)"/>
<path d="" fill="#FCFCFC" transform="translate(0,0)"/>
<path d="" fill="#F9F9F9" transform="translate(0,0)"/>
<path d="" fill="#F9F9F9" transform="translate(0,0)"/>
<path d="" fill="#FBFBFB" transform="translate(0,0)"/>
<path d="" fill="#FCFCFC" transform="translate(0,0)"/>
<path d="" fill="#F8F8F8" transform="translate(0,0)"/>
<path d="" fill="#F8F8F8" transform="translate(0,0)"/>
<path d="" fill="#FCFCFC" transform="translate(0,0)"/>
<path d="" fill="#F7F7F7" transform="translate(0,0)"/>
<path d="" fill="#F9F9F9" transform="translate(0,0)"/>
<path d="" fill="#FAFAFA" transform="translate(0,0)"/>
<path d="" fill="#F4F4F4" transform="translate(0,0)"/>
<path d="" fill="#F9F9F9" transform="translate(0,0)"/>
<path d="" fill="#F8F8F8" transform="translate(0,0)"/>
<path d="" fill="#F9F9F9" transform="translate(0,0)"/>
<path d="" fill="#F9F9F9" transform="translate(0,0)"/>
<path d="" fill="#F8F8F8" transform="translate(0,0)"/>
<path d="" fill="#FCFCFC" transform="translate(0,0)"/>
<path d="" fill="#FCFCFC" transform="translate(0,0)"/>
<path d="" fill="#FAFAFA" transform="translate(0,0)"/>
<path d="" fill="#F7F7F7" transform="translate(0,0)"/>
<path d="" fill="#F0F0F0" transform="translate(0,0)"/>
<path d="" fill="#FDFDFD" transform="translate(0,0)"/>
<path d="" fill="#FAFAFA" transform="translate(0,0)"/>
<path d="" fill="#FAFAFA" transform="translate(0,0)"/>
<path d="" fill="#F9F9F9" transform="translate(0,0)"/>
<path d="" fill="#FDFDFD" transform="translate(0,0)"/>
<path d="" fill="#FDFDFD" transform="translate(0,0)"/>
<path d="" fill="#FBFBFB" transform="translate(0,0)"/>
<path d="" fill="#FCFCFC" transform="translate(0,0)"/>
<path d="" fill="#F7F7F7" transform="translate(0,0)"/>
<path d="" fill="#F7F7F7" transform="translate(0,0)"/>
<path d="" fill="#FAFAFA" transform="translate(0,0)"/>
<path d="" fill="#F6F6F6" transform="translate(0,0)"/>
<path d="" fill="#F9F9F9" transform="translate(0,0)"/>
<path d="" fill="#F8F8F8" transform="translate(0,0)"/>
<path d="" fill="#F7F7F7" transform="translate(0,0)"/>
<path d="" fill="#F5F5F5" transform="translate(0,0)"/>
<path d="" fill="#F1F1F1" transform="translate(0,0)"/>
<path d="" fill="#F7F7F7" transform="translate(0,0)"/>
</svg>
