<svg width="144" height="28" viewBox="0 0 144 28" fill="none" xmlns="http://www.w3.org/2000/svg">
<path d="M61.5832 5.2042V7.82551C60.5039 7.20873 59.3474 6.82324 58.1139 6.82324C57.42 6.82324 56.8803 6.97744 56.4948 7.28582C56.1093 7.59421 55.9551 7.9797 55.9551 8.44228C55.9551 8.90487 56.1864 9.29035 56.5719 9.59874C56.9574 9.90713 57.5742 10.2155 58.4222 10.601C58.9619 10.8323 59.5016 11.0636 59.81 11.2949C60.1955 11.5262 60.581 11.7575 60.9665 12.1429C61.429 12.4513 61.7374 12.9139 61.8916 13.3765C62.1229 13.8391 62.2 14.3788 62.2 14.9955C62.2 16.3062 61.7374 17.3085 60.8123 18.0794C59.9642 18.9275 58.7306 19.313 57.1887 19.313C55.5697 19.313 54.1819 19.0046 53.1025 18.3878V15.6123C54.3361 16.5375 55.7238 16.923 57.1887 16.923C57.8826 16.923 58.3452 16.7688 58.8077 16.4604C59.2703 16.152 59.4245 15.6894 59.4245 15.1497C59.4245 14.9184 59.3474 14.6872 59.2703 14.4559C59.1932 14.2246 58.9619 14.0704 58.6535 13.8391C58.3452 13.6078 58.1139 13.5307 57.9597 13.3765C57.8055 13.2994 57.42 13.1452 56.9574 12.9139C56.8032 12.8368 56.7261 12.7597 56.649 12.7597C56.1093 12.5284 55.6467 12.2971 55.3384 12.0659C55.03 11.8346 54.6445 11.6033 54.259 11.2949C53.8735 10.9865 53.5651 10.601 53.4109 10.1384C53.1796 9.67584 53.1025 9.13616 53.1025 8.59648C53.1025 7.36292 53.5651 6.36066 54.4903 5.58969C55.4155 4.81871 56.649 4.43323 58.1139 4.43323C59.4245 4.51032 60.581 4.74162 61.5832 5.2042Z" fill="white"/>
<path d="M67.7511 10.1384V15.6894C67.7511 16.152 67.9053 16.4604 68.1366 16.7688C68.3679 17 68.7534 17.1542 69.1389 17.1542C69.6786 17.1542 70.2182 17 70.6808 16.6917V18.9275C70.1412 19.1588 69.5244 19.313 68.7534 19.313C66.3634 19.313 65.2069 18.1565 65.2069 15.7665V10.1384H63.5879V8.21097H65.2069V5.58966H67.8282V8.21097H70.5266V10.1384H67.7511Z" fill="white"/>
<path d="M79.5467 8.211H82.168V19.1588H79.5467V17.3856C79.007 18.6191 77.8505 19.313 76.1544 19.313C75.075 19.313 74.1499 19.0046 73.5331 18.3878C72.9163 17.7711 72.6079 16.8459 72.6079 15.6894V8.211H75.2292V14.9956C75.2292 15.6894 75.3834 16.2291 75.7689 16.5375C76.0773 16.923 76.5399 17.0772 77.1566 17.0772C77.9276 17.0772 78.4673 16.8459 78.9299 16.3062C79.3154 15.7665 79.5467 15.0727 79.5467 13.9933V8.211Z" fill="white"/>
<path d="M92.3448 3.89355H94.9661V19.1588H92.3448V17.4627C91.5738 18.6962 90.4945 19.313 89.0296 19.313C87.5648 19.313 86.4854 18.7733 85.6374 17.694C84.7893 16.6146 84.4038 15.3039 84.4038 13.6849C84.4038 11.9888 84.8664 10.601 85.7145 9.59875C86.5625 8.59648 87.719 8.0568 89.1067 8.0568C90.4945 8.0568 91.6509 8.67358 92.4219 9.90714V3.89355H92.3448ZM89.6464 17.0772C90.4174 17.0772 91.0342 16.7688 91.5738 16.152C92.1135 15.5352 92.3448 14.6872 92.3448 13.5307C92.3448 12.4513 92.0364 11.6033 91.4967 11.0636C90.9571 10.5239 90.3403 10.2155 89.6464 10.2155C88.8754 10.2155 88.2587 10.5239 87.719 11.1407C87.1793 11.7575 86.948 12.6055 86.948 13.6849C86.948 14.6872 87.1793 15.4581 87.719 16.0749C88.2587 16.7688 88.8754 17.0772 89.6464 17.0772Z" fill="white"/>
<path d="M100.826 18.9275L96.5083 8.211H99.3609L100.672 11.6804C101.057 12.6826 101.365 13.6078 101.597 14.3017C101.828 14.9956 101.982 15.4581 102.059 15.6123L102.136 15.9207C102.291 15.381 102.753 13.9933 103.524 11.6804L104.681 8.211H107.379L103.447 18.8504C102.368 21.7801 100.672 23.245 98.4357 23.245C98.0502 23.245 97.6648 23.245 97.3564 23.1679V21.0091C97.5877 21.0862 97.819 21.0862 98.1273 21.0862C99.3609 21.0862 100.286 20.3924 100.826 18.9275Z" fill="white"/>
<path d="M111.542 3.89355V10.0613C112.159 8.75068 113.238 8.0568 114.857 8.0568C115.937 8.0568 116.785 8.36519 117.401 9.05907C118.018 9.75294 118.404 10.6781 118.404 11.9888V19.1588H115.782V12.4513C115.782 11.7575 115.628 11.2178 115.243 10.8323C114.857 10.4468 114.472 10.2155 113.855 10.2155C113.238 10.2155 112.699 10.4468 112.159 10.9094C111.696 11.372 111.388 12.143 111.388 13.2223V19.0817H108.767V3.89355H111.542Z" fill="white"/>
<path d="M127.887 8.211H130.508V19.1588H127.887V17.3856C127.347 18.6191 126.191 19.313 124.495 19.313C123.415 19.313 122.49 19.0046 121.873 18.3878C121.257 17.7711 120.948 16.8459 120.948 15.6894V8.211H123.57V14.9956C123.57 15.6894 123.724 16.2291 124.109 16.5375C124.418 16.923 124.88 17.0772 125.497 17.0772C126.268 17.0772 126.808 16.8459 127.27 16.3062C127.656 15.7665 127.887 15.0727 127.887 13.9933V8.211Z" fill="white"/>
<path d="M135.982 3.89355V9.90714C136.753 8.67358 137.833 8.0568 139.297 8.0568C140.685 8.0568 141.764 8.59648 142.69 9.59875C143.538 10.601 144 11.9888 144 13.6849C144 15.2268 143.615 16.5375 142.767 17.694C141.919 18.7733 140.762 19.313 139.374 19.313C137.91 19.313 136.83 18.6962 136.059 17.4627V19.1588H133.438V3.89355H135.982ZM138.681 17.0772C139.452 17.0772 140.068 16.7688 140.531 16.152C141.071 15.5352 141.302 14.7643 141.302 13.762C141.302 12.6826 141.071 11.8346 140.531 11.2178C139.991 10.601 139.374 10.2926 138.681 10.2926C137.987 10.2926 137.37 10.601 136.83 11.1407C136.291 11.6804 135.982 12.5284 135.982 13.6078C135.982 14.7643 136.213 15.6123 136.753 16.2291C137.216 16.7688 137.91 17.0772 138.681 17.0772Z" fill="white"/>
<path d="M28.2126 19.5645H0.425293V18.9974H28.2126C29.1342 18.9974 29.1342 18.643 29.1342 18.4304V18.0759H29.7721V18.4304C29.7721 18.9266 29.4886 19.5645 28.2126 19.5645Z" fill="white"/>
<path d="M23.3215 15.0278H2.83545V15.6658H23.3215V15.0278Z" fill="white"/>
<path d="M31.8279 27.5038C31.7571 27.5038 31.6862 27.5038 31.6862 27.5038C31.5444 27.4329 31.4026 27.2911 31.4026 27.0785V23.9595C31.4026 22.7544 30.9064 21.5494 29.9849 20.6987C29.0634 19.8481 27.9292 19.4228 26.6533 19.4937L2.76465 19.5646V18.9266L26.6533 18.8557C28.071 18.7848 29.4178 19.281 30.4102 20.2734C31.4026 21.2658 31.9697 22.5418 31.9697 23.9595V26.6532L41.1849 17.438C42.1773 16.4456 42.7444 15.1696 42.7444 13.7519C42.7444 11.6253 41.4685 9.78228 39.5545 8.93165L39.7672 8.36456C41.9647 9.28608 43.3115 11.4127 43.3115 13.7519C43.3115 15.3114 42.6735 16.8 41.6102 17.8633L32.1115 27.362C32.0406 27.5038 31.9697 27.5038 31.8279 27.5038Z" fill="white"/>
<path d="M30.4811 28H0.779785V27.362H30.4811C31.4026 27.362 31.4026 27.0076 31.4026 26.7949V26.4405H32.0406V26.7949C32.0406 27.362 31.757 28 30.4811 28Z" fill="white"/>
<path d="M25.8736 23.3924H3.47363V24.0304H25.8736V23.3924Z" fill="white"/>
<path d="M0.0708861 10.562L10.9165 1.13418C11.6253 0.425317 12.6886 0 13.681 0H35.0177C38.0658 0 40.5468 2.48101 40.5468 5.52912C40.5468 7.01772 39.9798 8.43545 38.9165 9.42785L29.4177 18.9266C29.3468 18.9975 29.2051 18.9266 29.2051 18.8557V15.7367C29.2051 12.9722 26.9367 10.8456 24.1722 10.9165L0.283544 11.0582C0 11.0582 -0.0708861 10.7038 0.0708861 10.562Z" fill="white"/>
</svg>
