<svg width="50" height="54" viewBox="0 0 50 54" fill="none" xmlns="http://www.w3.org/2000/svg">
<path d="M11.7025 28.6411C13.4632 29.7615 15.7042 28.5344 17.3048 27.2538C18.6921 26.1867 20.026 24.9595 20.8797 23.4122C23.174 19.3038 20.2928 14.3951 15.7042 16.9562C12.8229 18.5035 7.48736 25.9199 11.7025 28.6411Z" fill="#3C25CC"/>
<path d="M11.7561 38.5653C10.8491 40.0593 10.1021 41.8734 10.5823 43.5807C11.1692 45.6616 13.5702 46.7821 15.7044 46.5687C17.8387 46.3552 19.7061 45.0747 21.2534 43.5274C23.281 41.4999 24.8816 39.0989 25.8954 36.4311C26.7491 34.1901 27.6028 29.8149 24.8283 28.4277C20.2397 26.1867 13.5702 35.4173 11.7561 38.5653Z" fill="#3C25CC"/>
<path d="M24.0808 22.0783C23.8674 22.9854 24.1342 24.0525 24.9345 24.5327C25.8949 25.1196 27.1221 24.6394 27.9758 23.9991C29.5231 22.932 33.8449 17.9699 30.2167 16.8495C27.5489 15.9958 24.561 19.8908 24.0808 22.0783Z" fill="#3C25CC"/>
<path d="M30.3232 28.6411C30.2165 29.2813 30.1632 30.0283 30.5367 30.6152C30.9102 31.2022 31.6571 31.5223 32.3508 31.5223C33.0444 31.5223 33.738 31.2555 34.3249 30.9354C36.3524 29.8683 42.0615 23.6256 37.6863 21.9716C34.3249 20.6911 30.7501 26.08 30.3232 28.6411Z" fill="#3C25CC"/>
<path d="M34.1124 17.2229C34.1657 17.7565 34.3791 18.2367 34.806 18.5568C35.553 19.0904 36.6201 18.6635 37.3671 18.1833C38.701 17.3297 42.8627 12.8478 39.7681 11.9407C36.8869 11.0337 33.8989 14.6085 34.1124 17.2229Z" fill="#3C25CC"/>
<path d="M23.2273 11.3005C22.9072 12.2075 22.7471 13.3813 23.4407 14.075C24.081 14.7686 25.1481 14.7152 26.0018 14.5018C28.2961 13.9149 30.2169 12.2609 31.6042 10.2867C32.5112 9.05953 33.3116 7.5122 32.8847 5.96489C32.4579 4.52428 31.0173 3.35046 29.5233 3.67059C26.5887 4.31086 24.081 8.73939 23.2273 11.3005Z" fill="#3C25CC"/>
<path d="M28.1889 41.5532C27.8154 42.727 27.7087 44.0609 28.4556 44.968C29.0959 45.7149 30.2164 45.875 31.1768 45.6082C32.1372 45.3414 32.9375 44.7012 33.5778 44.0075C34.8583 42.727 35.9255 41.1263 36.6191 39.419C37.5261 37.0713 36.8325 32.8028 33.4711 34.4035C30.91 35.7374 28.9892 38.8854 28.1889 41.5532Z" fill="#3C25CC"/>
<path d="M19.5996 51.6908C19.5996 52.1177 19.7597 52.6512 20.1332 52.8646C20.7734 53.2915 21.6271 52.918 22.214 52.4378C23.1211 51.7442 26.9627 47.1556 23.9748 46.8888C22.214 46.7821 19.653 50.1969 19.5996 51.6908Z" fill="#3C25CC"/>
<path d="M40.5143 34.2434C41.1546 34.6169 42.0083 34.1901 42.5952 33.7099C43.8224 32.6961 45.263 31.2021 45.6899 29.6015C46.0634 28.2676 45.263 26.8803 43.7691 27.1471C41.7949 27.4673 38.1667 32.8562 40.5143 34.2434Z" fill="#3C25CC"/>
<path d="M42.2753 19.037C42.0619 19.624 41.9018 20.2109 41.9552 20.8511C42.0085 21.4381 42.3286 22.0783 42.9156 22.3451C43.6092 22.6652 44.4629 22.3451 45.1032 21.9716C47.2907 20.7444 48.9981 18.6635 49.7451 16.2625C50.0119 15.4088 50.172 14.4484 49.6918 13.7015C48.6246 11.9941 45.9035 12.9545 44.8364 14.1283C43.7693 15.3555 42.8089 17.5431 42.2753 19.037Z" fill="#3C25CC"/>
<path d="M36.9928 5.85816C36.8327 6.33836 36.7794 6.81857 36.8861 7.29877C36.9928 7.77897 37.3129 8.20582 37.7398 8.36589C38.3801 8.57931 39.0737 8.20582 39.6606 7.77897C40.9411 6.71185 41.9015 5.21789 42.2217 3.56386C42.3284 3.13702 42.3284 2.60346 42.0616 2.28333C40.3542 0.255807 37.3129 4.73768 36.9928 5.85816Z" fill="#3C25CC"/>
<path d="M6.15327 39.2589C6.68683 39.5257 7.32711 39.2589 7.80731 38.9921C9.19456 38.1384 13.8899 31.5756 9.83482 32.0558C8.55428 32.2159 7.22039 33.1763 6.47341 34.2434C5.77979 35.2572 4.5526 38.4585 6.15327 39.2589Z" fill="#3C25CC"/>
<path d="M0.0175228 28.9612C-0.035833 29.5482 0.0175293 30.2418 0.39102 30.722C0.871222 31.3623 1.77827 31.5223 2.52525 31.3089C3.27223 31.0955 3.91249 30.5619 4.44605 29.975C5.67323 28.5878 6.47358 26.8804 6.79372 25.1196C6.90043 24.3726 6.95378 23.5723 6.52694 22.9854C5.45982 21.3314 2.73866 22.1317 1.77826 23.5189C0.871209 24.7995 0.124234 27.3606 0.0175228 28.9612Z" fill="#3C25CC"/>
<path d="M15.3303 11.8874C15.2236 12.4209 15.1169 13.0612 15.4371 13.4881C15.7038 13.9149 16.2907 14.1283 16.7709 14.075C17.3045 14.075 17.7847 13.8082 18.2116 13.5414C19.7589 12.6344 20.9327 11.087 21.4129 9.32629C21.573 8.84609 21.6263 8.25918 21.4663 7.77898C21.1461 6.97864 20.1324 6.60515 19.2787 6.71186C17.0377 7.19206 15.8106 9.85986 15.3303 11.8874Z" fill="#3C25CC"/>
<path d="M3.53887 16.5827C3.3788 17.383 3.43216 18.3968 4.12579 18.877C4.55263 19.1971 5.13954 19.2505 5.6731 19.0904C6.20666 18.9303 6.63351 18.6102 7.06035 18.2367C9.03452 16.5827 10.4218 14.1817 10.902 11.6206C11.0087 11.0337 11.062 10.34 10.7419 9.80649C9.67479 8.0991 7.06035 9.69977 6.20666 10.8202C4.97948 12.4743 3.859 14.6085 3.53887 16.5827Z" fill="#3C25CC"/>
<path d="M10.736 24.6574C12.3513 25.6853 14.4072 24.5595 15.8756 23.3847C17.1483 22.4057 18.372 21.2799 19.1552 19.8604C21.26 16.0914 18.6167 11.5881 14.4072 13.9376C11.7639 15.3572 6.86908 22.161 10.736 24.6574Z" fill="#FFD335"/>
<path d="M10.7849 33.7618C9.95282 35.1324 9.26753 36.7966 9.70807 38.363C10.2465 40.272 12.4492 41.2999 14.4071 41.1041C16.3651 40.9083 18.0783 39.7336 19.4978 38.314C21.3578 36.454 22.8263 34.2513 23.7563 31.8039C24.5395 29.748 25.3227 25.7343 22.7773 24.4616C18.5678 22.4058 12.4492 30.8739 10.7849 33.7618Z" fill="#FFD335"/>
<path d="M22.0916 18.6367C21.8958 19.4688 22.1405 20.4478 22.8748 20.8883C23.7558 21.4268 24.8817 20.9862 25.6648 20.3989C27.0843 19.4199 31.0492 14.8677 27.7207 13.8397C25.2733 13.0566 22.5321 16.6298 22.0916 18.6367Z" fill="#FFD335"/>
<path d="M27.8187 24.6574C27.7208 25.2448 27.6719 25.9301 28.0145 26.4685C28.3571 27.0069 29.0424 27.3006 29.6787 27.3006C30.3151 27.3006 30.9514 27.0559 31.4898 26.7622C33.3499 25.7832 38.5874 20.0562 34.5736 18.5388C31.4898 17.3641 28.2103 22.3079 27.8187 24.6574Z" fill="#FFD335"/>
<path d="M31.2946 14.1824C31.3435 14.6719 31.5393 15.1124 31.9309 15.4061C32.6162 15.8956 33.5952 15.504 34.2804 15.0635C35.5042 14.2803 39.3221 10.1686 36.4831 9.33649C33.8399 8.50437 31.0988 11.7839 31.2946 14.1824Z" fill="#FFD335"/>
<path d="M21.3087 8.7491C21.015 9.58123 20.8682 10.6581 21.5045 11.2944C22.0919 11.9308 23.0709 11.8818 23.8541 11.686C25.9588 11.1476 27.721 9.63018 28.9937 7.81908C29.8258 6.69327 30.56 5.27375 30.1684 3.85424C29.7768 2.53263 28.4552 1.45577 27.0847 1.74946C24.3925 2.33684 22.0919 6.39957 21.3087 8.7491Z" fill="#FFD335"/>
<path d="M25.8613 36.503C25.5186 37.5798 25.4207 38.8035 26.106 39.6357C26.6934 40.3209 27.7213 40.4678 28.6024 40.223C29.4835 39.9783 30.2177 39.3909 30.8051 38.7546C31.9799 37.5798 32.9588 36.1114 33.5952 34.545C34.4273 32.3913 33.791 28.4754 30.7072 29.9438C28.3577 31.1675 26.5955 34.0555 25.8613 36.503Z" fill="#FFD335"/>
<path d="M17.9805 45.8032C17.9805 46.1948 18.1273 46.6843 18.47 46.88C19.0573 47.2716 19.8405 46.929 20.3789 46.4885C21.2111 45.8521 24.7354 41.6426 21.9942 41.3978C20.3789 41.2999 18.0294 44.4326 17.9805 45.8032Z" fill="#FFD335"/>
<path d="M37.168 29.797C37.7554 30.1396 38.5386 29.748 39.077 29.3075C40.2028 28.3775 41.5244 27.0069 41.916 25.5385C42.2587 24.3147 41.5244 23.0421 40.1539 23.2868C38.3428 23.5805 35.0143 28.5243 37.168 29.797Z" fill="#FFD335"/>
<path d="M38.7837 15.8466C38.5879 16.3851 38.441 16.9235 38.49 17.5109C38.5389 18.0493 38.8326 18.6367 39.371 18.8814C40.0074 19.1751 40.7905 18.8814 41.3779 18.5388C43.3848 17.413 44.9512 15.504 45.6365 13.3013C45.8812 12.5181 46.028 11.637 45.5875 10.9518C44.6085 9.38541 42.1121 10.2665 41.1332 11.3433C40.1542 12.4692 39.2731 14.4761 38.7837 15.8466Z" fill="#FFD335"/>
<path d="M33.9374 3.75633C33.7906 4.19687 33.7416 4.63741 33.8395 5.07795C33.9374 5.51849 34.2311 5.91008 34.6227 6.05692C35.2101 6.25272 35.8464 5.91008 36.3848 5.51849C37.5596 4.53952 38.4407 3.16896 38.7344 1.65155C38.8323 1.25996 38.8323 0.770479 38.5875 0.476788C37.0212 -1.38326 34.2311 2.72841 33.9374 3.75633Z" fill="#FFD335"/>
<path d="M5.64547 34.3982C6.13496 34.6429 6.72234 34.3982 7.16288 34.1534C8.43554 33.3702 12.743 27.3496 9.02292 27.7901C7.84816 27.9369 6.62445 28.818 5.93917 29.797C5.30283 30.727 4.17701 33.6639 5.64547 34.3982Z" fill="#FFD335"/>
<path d="M0.0160754 24.9511C-0.0328732 25.4895 0.0160814 26.1259 0.358722 26.5664C0.799259 27.1538 1.63138 27.3006 2.31667 27.1048C3.00195 26.909 3.58932 26.4195 4.0788 25.8811C5.20462 24.6084 5.93886 23.0421 6.23255 21.4268C6.33045 20.7415 6.3794 20.0073 5.98781 19.4688C5.00884 17.9514 2.51245 18.6857 1.63137 19.9583C0.799247 21.1331 0.113973 23.4826 0.0160754 24.9511Z" fill="#FFD335"/>
<path d="M14.0642 9.28754C13.9663 9.77702 13.8684 10.3644 14.1621 10.756C14.4068 11.1476 14.9453 11.3434 15.3858 11.2944C15.8753 11.2944 16.3158 11.0497 16.7074 10.8049C18.1269 9.97282 19.2038 8.5533 19.6443 6.93799C19.7912 6.49746 19.8401 5.95903 19.6933 5.51849C19.3996 4.78426 18.4696 4.44162 17.6864 4.53952C15.6306 4.98005 14.5047 7.42749 14.0642 9.28754Z" fill="#FFD335"/>
<path d="M3.24654 13.595C3.09969 14.3292 3.14865 15.2593 3.78498 15.6998C4.17657 15.9935 4.715 16.0425 5.20448 15.8956C5.69397 15.7488 6.08556 15.4551 6.47715 15.1124C8.28825 13.595 9.5609 11.3923 10.0014 9.04281C10.0993 8.50437 10.1483 7.86804 9.8546 7.37856C8.87563 5.8122 6.47715 7.28066 5.69397 8.30858C4.56815 9.82599 3.54023 11.7839 3.24654 13.595Z" fill="#FFD335"/>
</svg>
