<svg width="52" height="46" viewBox="0 0 52 46" fill="none" xmlns="http://www.w3.org/2000/svg">
<path d="M24.8209 31.5873L21.0563 37.7806L13.8104 37.9442L9.89207 44.401C9.70559 44.6834 9.82924 45.049 10.0928 45.2027C10.3752 45.3891 10.7407 45.2655 10.8944 45.002L14.4726 39.0912L21.7185 38.9275L25.4831 32.7342L32.729 32.5706L36.4936 26.3773L43.7395 26.2136L47.6578 19.7569C47.8443 19.4745 47.7207 19.1089 47.4572 18.9552C47.1747 18.7687 46.8092 18.8924 46.6555 19.1559L43.0773 25.0667L35.8315 25.2304L32.0668 31.4236L24.8209 31.5873Z" fill="#452DDF"/>
<path d="M22.2101 27.0651L18.4454 33.2584L11.1996 33.422L7.28123 39.8788C7.09475 40.1612 7.2184 40.5268 7.48191 40.6805C7.76435 40.8669 8.12988 40.7433 8.28359 40.4798L11.8618 34.569L19.1076 34.4053L22.8723 28.2121L30.1181 28.0484L33.8828 21.8551L41.1286 21.6915L45.047 15.2347C45.2335 14.9523 45.1098 14.5867 44.8463 14.433C44.5639 14.2466 44.1983 14.3702 44.0446 14.6337L40.4664 20.5445L33.2206 20.7082L29.4559 26.9015L22.2101 27.0651Z" fill="#452DDF"/>
<path d="M19.5988 22.543L15.8341 28.7362L8.58827 28.8999L4.6699 35.3566C4.48342 35.6391 4.60707 36.0046 4.87059 36.1583C5.15302 36.3448 5.51856 36.2211 5.67226 35.9576L9.25045 30.0468L16.4963 29.8831L20.261 23.6899L27.5068 23.5262L31.2715 17.333L38.5173 17.1693L42.4357 10.7126C42.6222 10.4301 42.4985 10.0646 42.235 9.91088C41.9526 9.7244 41.587 9.84806 41.4333 10.1116L37.8551 16.0224L30.6093 16.1861L26.8446 22.3793L19.5988 22.543Z" fill="#452DDF"/>
<path d="M17.007 18.0536L13.2423 24.2468L5.99648 24.4105L2.0781 30.8672C1.89162 31.1497 2.01528 31.5152 2.27879 31.6689C2.56122 31.8554 2.92676 31.7317 3.08046 31.4682L6.65866 25.5574L13.9045 25.3937L17.6692 19.2005L24.915 19.0368L28.6797 12.8436L35.9255 12.6799L39.8439 6.22314C40.0304 5.94071 39.9067 5.57518 39.6432 5.42147C39.3608 5.23499 38.9952 5.35865 38.8415 5.62216L35.2633 11.533L27.9847 11.7156L24.22 17.9088L17.007 18.0536Z" fill="#452DDF"/>
<path d="M27.0846 26.6539L23.3199 32.8471L16.0741 33.0108L12.1557 39.4675C11.9693 39.75 12.0929 40.1155 12.3564 40.2692C12.6389 40.4557 13.0044 40.332 13.1581 40.0685L16.7363 34.1577L23.9821 33.994L27.7468 27.8008L34.9926 27.6371L38.7573 21.4439L46.0031 21.2802L49.9215 14.8235C50.108 14.541 49.9843 14.1755 49.7208 14.0218C49.4573 13.8681 49.0729 13.959 48.9191 14.2225L45.341 20.1333L38.0951 20.297L34.3305 26.4902L27.0846 26.6539Z" fill="#FFD335"/>
<path d="M24.4738 22.1317L20.7091 28.3249L13.4633 28.4886L9.5449 34.9454C9.35842 35.2278 9.48208 35.5933 9.74559 35.747C10.028 35.9335 10.3936 35.8099 10.5473 35.5463L14.1255 29.6355L21.3713 29.4719L25.136 23.2786L32.3818 23.1149L36.1465 16.9217L43.3923 16.758L47.3107 10.3013C47.4972 10.0188 47.3735 9.6533 47.11 9.4996C46.8276 9.31312 46.462 9.43677 46.3083 9.70029L42.7301 15.6111L35.4843 15.7748L31.7196 21.968L24.4738 22.1317Z" fill="#FFD335"/>
<path d="M21.8629 17.6095L18.0983 23.8028L10.8524 23.9665L6.93406 30.4232C6.74758 30.7056 6.87124 31.0712 7.13475 31.2249C7.41718 31.4114 7.78272 31.2877 7.93642 31.0242L11.5146 25.1134L18.7604 24.9497L22.5251 18.7565L29.771 18.5928L33.5356 12.3995L40.7815 12.2359L44.6998 5.77911C44.8863 5.49668 44.7627 5.13115 44.4991 4.97744C44.2167 4.79096 43.8512 4.91462 43.6975 5.17813L40.1193 11.0889L32.8734 11.2526L29.1088 17.4459L21.8629 17.6095Z" fill="#FFD335"/>
<path d="M19.2521 13.0874L15.4874 19.2806L8.24159 19.4443L4.32321 25.901C4.13674 26.1835 4.26039 26.549 4.52391 26.7027C4.80634 26.8892 5.17187 26.7655 5.32558 26.502L8.90377 20.5912L16.1496 20.4275L19.9332 14.2671L27.179 14.1034L30.9437 7.91015L38.1895 7.74647L42.1079 1.28972C42.2427 0.993438 42.1707 0.641756 41.8883 0.455279C41.6248 0.301571 41.2403 0.392457 41.0866 0.65597L37.5084 6.56678L30.2626 6.73045L26.4979 12.9237L19.2521 13.0874Z" fill="#FFD335"/>
</svg>
