<svg width="674" height="388" viewBox="0 0 674 388" fill="none" xmlns="http://www.w3.org/2000/svg">
<path d="M208.311 471.663C168.852 429.969 178.137 356.942 228.918 308.884C279.699 260.825 353.127 255.573 392.585 297.267C432.044 338.961 422.759 411.988 371.978 460.046C321.126 508.172 247.77 513.357 208.311 471.663ZM390.264 299.463C351.813 258.834 280.28 263.975 230.695 310.902C181.18 357.763 172.124 429.059 210.491 469.6C248.942 510.229 320.475 505.089 370.06 458.161C419.73 411.323 428.716 340.093 390.264 299.463Z" fill="#FFFCFB" fill-opacity="0.05"/>
<path d="M199.116 482.171C149.958 430.228 161.555 338.963 225.081 278.843C288.607 218.722 380.301 212.232 429.46 264.175C478.618 316.119 467.021 407.383 403.565 467.437C340.11 527.49 248.359 534.203 199.116 482.171ZM427.203 266.311C378.969 215.344 289.187 221.877 226.93 280.796C164.673 339.716 153.293 429.091 201.527 480.058C249.761 531.024 339.628 524.58 401.884 465.661C464.057 406.652 475.438 317.277 427.203 266.311Z" fill="#FFFCFB" fill-opacity="0.05"/>
<path d="M187.001 498.102C128.059 435.821 141.838 326.612 217.773 254.747C293.709 182.882 403.511 175.135 462.453 237.416C521.396 299.697 507.617 408.906 431.681 480.771C355.745 552.637 246.028 560.472 187.001 498.102ZM460.131 239.614C402.114 178.31 294.208 185.946 219.539 256.613C144.87 327.279 131.306 434.601 189.324 495.904C247.341 557.208 355.246 549.572 429.916 478.906C504.585 408.239 518.149 300.918 460.131 239.614Z" fill="#FFFCFB" fill-opacity="0.05"/>
<path d="M176.049 498.893C107.472 426.431 123.713 299.252 212.413 215.307C301.043 131.428 428.993 122.145 497.57 194.608C566.232 267.159 549.921 394.404 461.291 478.282C372.591 562.228 244.711 571.444 176.049 498.893ZM495.314 196.743C427.744 125.345 301.536 134.492 214.176 217.169C126.815 299.847 110.735 425.359 178.306 496.757C245.876 568.156 372.013 559.075 459.444 476.331C546.805 393.653 562.969 268.23 495.314 196.743Z" fill="#FFFCFB" fill-opacity="0.05"/>
</svg>
