<svg width="22" height="22" viewBox="0 0 22 22" fill="none" xmlns="http://www.w3.org/2000/svg">
<path d="M15.9897 2.05447C14.6541 0.728365 12.886 0 11.0051 0C10.9881 0 10.9707 4.29688e-05 10.9537 0.000171875C9.11748 0.0131055 7.37892 0.732533 6.05823 2.02594C4.73728 3.3196 3.98228 5.04282 3.93239 6.87806C3.88036 8.79056 4.58088 10.6019 5.90492 11.9785C6.94756 13.0625 7.52175 14.5043 7.52175 16.0385V18.9896C7.52175 19.596 7.94272 20.1055 8.50758 20.2422V20.6357C8.50758 21.388 9.11959 22 9.87184 22H12.1277C12.88 22 13.492 21.388 13.492 20.6357V20.2445C14.0618 20.1113 14.4876 19.5995 14.4876 18.9896V16.0385C14.4876 14.5245 15.0776 13.066 16.1489 11.9318C17.394 10.6136 18.0797 8.88879 18.0797 7.07495C18.0797 5.17572 17.3374 3.39273 15.9897 2.05447ZM12.6326 20.6358C12.6326 20.9142 12.4061 21.1407 12.1278 21.1407H9.87189C9.59349 21.1407 9.367 20.9142 9.367 20.6358V20.2786H12.6326V20.6358ZM13.6283 18.9896C13.6283 19.2265 13.4356 19.4192 13.1987 19.4192H13.0623H8.93732H8.81073C8.57384 19.4192 8.38117 19.2265 8.38117 18.9896V16.5458H13.6283V18.9896ZM10.3297 15.6864V10.2514H11.6684V15.6864H10.3297V15.6864ZM15.5242 11.3417C14.3846 12.5482 13.7222 14.0794 13.6375 15.6864H12.5277V10.2514H12.914C13.6008 10.2514 14.1596 9.69265 14.1596 9.00579V8.93919C14.1596 8.25234 13.6008 7.69357 12.914 7.69357C12.2271 7.69357 11.6684 8.25234 11.6684 8.93919V9.39204H10.3297V8.93919C10.3297 8.25234 9.77095 7.69357 9.08414 7.69357H8.99949C8.31268 7.69357 7.75391 8.25234 7.75391 8.93919V9.00579C7.75391 9.69261 8.31268 10.2514 8.99949 10.2514H9.47034V15.6864H8.37232C8.29029 14.0612 7.64142 12.5441 6.52431 11.3827C5.36115 10.1734 4.74571 8.58191 4.79147 6.90144C4.88144 3.59327 7.64851 0.882881 10.9598 0.859506C12.631 0.847775 14.2002 1.4887 15.3842 2.66428C16.5683 3.84 17.2203 5.40642 17.2203 7.07495C17.2203 8.66849 16.618 10.1837 15.5242 11.3417ZM12.5277 9.39204V8.93919C12.5277 8.7262 12.701 8.55295 12.914 8.55295C13.1269 8.55295 13.3002 8.72624 13.3002 8.93919V9.00579C13.3002 9.21879 13.1269 9.39204 12.914 9.39204H12.5277ZM9.4703 8.93919V9.39204H8.99945C8.78649 9.39204 8.61324 9.21879 8.61324 9.00579V8.93919C8.61324 8.7262 8.78649 8.55295 8.99945 8.55295H9.0841C9.29705 8.55295 9.4703 8.72628 9.4703 8.93919Z" fill="#FFD335"/>
<path d="M15.611 5.21486C15.2419 4.2985 14.6141 3.51866 13.7956 2.95964C12.9566 2.38665 11.9731 2.08759 10.954 2.09476C10.7167 2.09644 10.5257 2.29018 10.5274 2.5275C10.529 2.76379 10.7211 2.95414 10.957 2.95414C10.958 2.95414 10.9591 2.95414 10.9601 2.95414C10.9701 2.95409 10.98 2.95405 10.99 2.95405C12.6821 2.95405 14.181 3.96489 14.8139 5.53596C14.8814 5.70346 15.0425 5.80521 15.2126 5.80521C15.266 5.80521 15.3204 5.79519 15.373 5.77397C15.5931 5.68528 15.6997 5.43494 15.611 5.21486Z" fill="#FFD335"/>
<path d="M15.8443 6.77101C15.7644 6.69109 15.6535 6.64511 15.5405 6.64511C15.4275 6.64511 15.3167 6.69109 15.2367 6.77101C15.1564 6.85093 15.1108 6.96179 15.1108 7.0748C15.1108 7.18824 15.1564 7.29867 15.2367 7.37859C15.3167 7.45894 15.4271 7.50449 15.5405 7.50449C15.6535 7.50449 15.7644 7.45894 15.8443 7.37859C15.9242 7.29867 15.9702 7.18824 15.9702 7.0748C15.9702 6.96179 15.9242 6.85093 15.8443 6.77101Z" fill="#FFD335"/>
<path d="M19.956 2.14019C19.7881 1.97239 19.5162 1.97239 19.3483 2.14019L18.5477 2.94074C18.3799 3.10853 18.3799 3.38061 18.5477 3.54845C18.6316 3.63237 18.7416 3.6743 18.8516 3.6743C18.9616 3.6743 19.0715 3.63237 19.1554 3.54845L19.956 2.7479C20.1238 2.5801 20.1238 2.30802 19.956 2.14019Z" fill="#FFD335"/>
<path d="M19.9559 11.4021L19.1554 10.6015C18.9876 10.4337 18.7156 10.4337 18.5477 10.6015C18.3799 10.7693 18.3799 11.0414 18.5477 11.2092L19.3483 12.0097C19.4322 12.0937 19.5421 12.1356 19.6521 12.1356C19.7621 12.1356 19.872 12.0936 19.9559 12.0097C20.1237 11.8419 20.1237 11.5699 19.9559 11.4021Z" fill="#FFD335"/>
<path d="M21.5702 6.64529H20.438C20.2007 6.64529 20.0083 6.83767 20.0083 7.07498C20.0083 7.3123 20.2007 7.50467 20.438 7.50467H21.5702C21.8074 7.50467 21.9999 7.3123 21.9999 7.07498C21.9999 6.83767 21.8074 6.64529 21.5702 6.64529Z" fill="#FFD335"/>
<path d="M3.45203 2.9408L2.65152 2.14025C2.48369 1.97246 2.21169 1.97246 2.04381 2.14025C1.87602 2.30804 1.87602 2.58012 2.04381 2.74796L2.84437 3.54851C2.92828 3.63243 3.03824 3.67437 3.1482 3.67437C3.25816 3.67437 3.36811 3.63243 3.45203 3.54851C3.61982 3.38067 3.61982 3.10864 3.45203 2.9408Z" fill="#FFD335"/>
<path d="M3.45203 10.6015C3.28424 10.4337 3.0122 10.4337 2.84437 10.6015L2.04381 11.4021C1.87602 11.5699 1.87602 11.842 2.04381 12.0098C2.12773 12.0937 2.23769 12.1356 2.34765 12.1356C2.4576 12.1356 2.56756 12.0936 2.65148 12.0098L3.45203 11.2092C3.61982 11.0414 3.61982 10.7693 3.45203 10.6015Z" fill="#FFD335"/>
<path d="M1.56187 6.64529H0.429688C0.192414 6.64529 0 6.83767 0 7.07498C0 7.3123 0.192414 7.50467 0.429688 7.50467H1.56187C1.79915 7.50467 1.99156 7.3123 1.99156 7.07498C1.99156 6.83767 1.79915 6.64529 1.56187 6.64529Z" fill="#FFD335"/>
</svg>
