<svg width="220" height="229" viewBox="0 0 220 229" fill="none" xmlns="http://www.w3.org/2000/svg">
<g clip-path="url(#clip0_2483_26574)">
<path d="M92.6503 1.22445C91.241 0.740047 89.723 1.51597 89.2385 2.92528L87.4298 8.12013L85.3432 13.3817L83.1433 18.9056L81.9789 21.8887L80.83 24.6917L79.7634 27.5926L78.6968 30.4935L77.6302 33.3943L76.6459 36.393L75.7593 39.3094L74.955 42.3235L74.3308 45.3533L73.8866 48.3985L73.6224 51.4593L73.5383 54.5357L73.5364 57.7098L73.8124 60.8172L74.3662 63.8579L75.1824 67.012L76.1785 70.1816L77.5503 73.2022L78.095 74.2468L76.2013 75.1717L73.5408 76.5746L70.9626 78.0753L68.4355 80.0338L66.0062 81.9101L63.757 83.802L61.59 85.7916L59.5052 87.8791L57.585 90.1621L55.8448 92.4606L54.2692 94.9548L52.9558 97.5623L51.9047 100.283L51.0337 103.019L50.5073 105.967L50.0521 110.19L49.8747 114.347L49.893 118.339L50.1891 122.264L50.763 126.123L51.5325 129.817L52.5798 133.445L53.8228 136.908L55.2613 140.206L56.9776 143.438L58.7918 146.587L60.8015 149.572L62.9246 152.295L65.2277 155.033L67.7264 157.607L70.503 160.114L73.2951 162.441L76.1849 164.685L79.2704 166.766L82.4537 168.764L85.7347 170.679L89.0313 172.415L92.5235 173.986L96.1134 175.475L99.7189 176.784L103.422 178.01L107.223 179.154L111.04 180.119L114.857 181.083L118.689 181.867L122.536 182.471L126.482 182.993L130.345 183.417L134.224 183.661L138.118 183.725L142.013 183.789L145.923 183.673L149.75 183.46L153.593 183.066L157.354 182.574L161.033 181.985L164.727 181.215L168.339 180.348L171.786 179.285L175.152 178.124L178.434 176.866L180.035 176.188L179.53 176.779L178.537 177.781L177.446 178.866L176.159 180.116L174.774 181.447L173.292 182.861L171.531 184.342L169.071 186.578L166.611 188.814L164.166 190.871L162.992 191.858L161.736 192.747L160.481 193.636L159.225 194.526L157.887 195.317L156.467 196.011C155.144 196.622 154.629 198.392 155.338 199.632C156.032 201.052 157.719 201.47 159.041 200.858L160.559 200.082L162.093 199.127L163.626 198.171L165.078 197.117L166.431 196.145L167.8 194.994L170.343 192.855L172.803 190.619L175.264 188.382L177.024 186.902L178.604 185.406L180.087 183.992L181.471 182.66L182.758 181.411L183.392 180.377L184.303 179.277L185.214 178.176L185.945 177.06L186.481 176.109L186.934 175.06L187.29 174.093L187.563 173.028L187.656 171.948L187.569 170.852L187.385 169.838L187.102 168.907L186.542 168.043L185.884 167.26L185.211 166.658L184.439 166.138L183.57 165.7L182.701 165.262L181.734 164.907L179.882 164.293L177.753 163.747L175.525 163.283L173.216 162.72L170.809 162.241L168.319 161.663L165.829 161.085L163.355 160.328L160.799 159.472L158.341 158.534L155.898 157.417L153.568 156.037C152.272 155.29 150.605 155.69 149.76 157.068C149.014 158.364 149.414 160.031 150.71 160.778L153.302 162.272L156.007 163.503L158.728 164.554L161.464 165.425L164.118 166.198L166.788 166.791L169.278 167.369L171.685 167.849L173.912 168.313L175.96 168.762L177.827 169.195L179.154 169.582L178.583 169.895L175.66 171.185L172.655 172.376L169.485 173.372L166.233 174.271L162.899 175.071L159.483 175.774L155.984 176.379L152.403 176.886L148.838 177.214L145.191 177.443L141.461 177.575L137.746 177.526L134.032 177.478L130.333 177.249L126.65 176.841L122.885 176.334L119.217 175.746L115.565 174.977L111.913 174.208L108.276 173.259L104.737 172.229L101.214 171.017L97.7888 169.724L94.4611 168.349L91.5447 167.462L88.3304 165.824L85.2138 164.104L82.2929 162.22L79.4697 160.253L76.7443 158.204L74.1168 156.072L71.6848 153.777L69.3506 151.398L67.212 148.856L65.1712 146.231L63.3259 143.442L61.6607 140.668L60.1911 137.729L58.8193 134.709L57.7254 131.621L56.827 128.37L56.1242 124.953L55.6015 121.552L55.2743 117.987L55.225 114.355L55.3712 110.559L55.7953 106.695L56.2752 104.288L57.0173 101.994L57.9395 99.7156L59.124 97.5504L60.3908 95.4831L61.8376 93.4313L63.5467 91.4928L65.338 89.6522L67.3094 87.827L69.3631 86.0997L71.499 84.4701L73.8149 82.8561L76.2132 81.3399L78.6936 79.9215L81.1585 78.6831L81.2563 78.6009L81.9144 79.3832L83.9195 81.3702L86.0225 83.2748L88.4033 85.1128L90.8819 86.8685L93.4583 88.542L96.1481 89.9532L98.9356 91.282L101.739 92.4309L104.557 93.3997L107.391 94.1885L110.159 94.6994L112.86 94.9325L114.218 94.959L115.494 94.8877L116.867 94.7342L118.159 94.4829L119.45 94.2315L120.659 93.8824L121.884 93.3533L123.026 92.7263L124.086 92.0016L125.064 91.179L125.96 90.2587L126.774 89.2406L127.505 88.1246L128.154 86.9109L128.72 85.5994L129.205 84.1901L129.607 82.683L129.844 80.9803L129.902 79.2621L129.682 77.6106L129.184 76.0258L128.49 74.6055L127.601 73.3498L126.434 72.1607L124.135 70.4205L121.445 69.0094L118.627 68.0406L115.695 67.3341L112.65 66.8899L110.227 66.5901L108.786 66.4658L107.428 66.4392L106.152 66.5105L104.974 66.4995L103.878 66.5864L102.865 66.771L100.478 67.1091L97.8948 67.6117L95.2142 68.1966L92.6159 68.8793L89.9197 69.6443L87.208 70.5893L84.3986 71.6165L83.1739 72.1457L82.4646 70.9055L81.2418 68.2605L80.2968 65.5488L79.5319 62.8526L79.0448 60.0898L78.82 57.4403L78.6929 54.7085L78.8438 51.91L79.1746 49.127L79.6856 46.3596L80.2943 43.5099L80.9853 40.758L81.774 37.9239L82.7428 35.1053L83.7116 32.2867L84.8605 29.4836L86.0093 26.6805L87.1582 23.8775L88.3071 21.0744L90.6048 15.4683L92.7069 10.0267L94.4334 4.73403C94.9178 3.32472 94.0596 1.70886 92.6503 1.22445ZM88.9491 75.637L91.5629 74.7743L94.079 73.9938L96.5796 73.3934L98.9824 72.8752L101.287 72.4392L103.577 72.1834L104.313 72.0655L105.228 71.9631L106.226 71.9585L107.404 71.9695L108.582 71.9805L109.761 71.9915L112.379 72.1268L114.982 72.4421L117.472 73.0197L119.766 73.7619L121.684 74.653L123.211 75.8731L123.622 76.3621L124.018 77.0311L124.234 77.6846L124.449 78.3381L124.814 79.3672L124.819 80.3652L124.628 81.5277L124.354 82.5925L123.999 83.5594L123.643 84.5264L123.303 85.3133L122.783 86.0847L122.279 86.676L121.692 87.1695L121.105 87.663L120.436 88.0588L119.767 88.4545L119.016 88.7524L118.265 89.0504L117.431 89.2505L116.515 89.3529L115.6 89.4552L114.602 89.4598L113.604 89.4644L111.263 89.2623L108.938 88.8803L106.366 88.2049L103.81 87.3494L101.269 86.3139L98.7437 85.0983L96.3163 83.8005L93.9867 82.4204L91.6726 80.8603L89.6363 79.2334L87.6978 77.5243L86.613 76.433L88.9491 75.637Z" fill="#553CDF"/>
</g>
<defs>
<clipPath id="clip0_2483_26574">
<rect width="120.374" height="197.813" fill="white" transform="translate(0 77.4834) rotate(-40.0674)"/>
</clipPath>
</defs>
</svg>
