<svg width="172" height="170" viewBox="0 0 172 170" fill="none" xmlns="http://www.w3.org/2000/svg">
<path fill-rule="evenodd" clip-rule="evenodd" d="M132.559 79.2291C158.316 55.2155 168.407 22.8819 169.78 0.368251L171.189 0.455567C169.778 23.1778 159.611 55.9284 133.45 80.2557C108.849 103.146 70.0856 118.467 11.383 111.099C26.4121 116.542 35.8451 125.869 41.5222 135.884C48.4613 148.201 49.7403 161.459 48.8606 170.007L47.4243 169.828C48.3835 161.554 47.0662 148.505 40.3242 136.526C33.5822 124.547 21.2978 113.573 0.0875739 109.319L0.17609 108.603L0.264622 107.886L0.473576 107.925L0.420657 107.742C30.0632 102.554 45.3007 91.3489 52.4711 79.6053C59.6416 67.8617 58.8096 55.4627 55.7512 47.6551L57.0934 47.1695C60.2577 55.3415 61.1307 68.2223 53.7011 80.4356C46.5307 92.1792 31.6965 103.071 4.11705 108.553C66.6657 118.268 107.243 102.72 132.559 79.2291Z" fill="#553CDF"/>
</svg>
