<svg width="173" height="170" viewBox="0 0 173 170" fill="none" xmlns="http://www.w3.org/2000/svg">
<path fill-rule="evenodd" clip-rule="evenodd" d="M39.6163 79.2291C13.8587 55.2155 3.76793 22.8819 2.39514 0.368251L0.985377 0.455567C2.3965 23.1778 12.5639 55.9284 38.7248 80.2557C63.3254 103.146 102.089 118.467 160.792 111.099C145.763 116.542 136.33 125.869 130.653 135.884C123.713 148.201 122.434 161.459 123.314 170.007L124.75 169.828C123.791 161.554 125.109 148.505 131.851 136.526C138.593 124.547 150.877 113.573 172.087 109.319L171.999 108.603L171.91 107.886L171.701 107.925L171.754 107.742C142.112 102.554 126.874 91.3489 119.704 79.6053C112.533 67.8617 113.365 55.4627 116.424 47.6551L115.081 47.1695C111.917 55.3415 111.044 68.2223 118.474 80.4356C125.644 92.1792 140.478 103.071 168.058 108.553C105.509 118.268 64.9323 102.72 39.6163 79.2291Z" fill="#553CDF"/>
</svg>
