<svg width="31" height="31" viewBox="0 0 31 31" fill="none" xmlns="http://www.w3.org/2000/svg">
<g clip-path="url(#clip0_2460_24508)">
<path d="M23.5317 2.48626C27.9176 5.19549 30.8403 10.0467 30.8403 15.5805C30.8403 24.0746 23.9545 30.9604 15.4604 30.9604C13.6081 30.9604 11.8323 30.6329 10.1882 30.0322L10.0125 29.9668L10.2985 29.875L10.6662 29.7544L10.8476 29.6938L11.0274 29.633L11.3821 29.5108L11.7302 29.3878L12.0719 29.2641L12.4071 29.1394L12.5723 29.0768L12.8978 28.951C13.2415 28.8163 13.5741 28.6801 13.8957 28.5426L14.1348 28.4391L14.4278 28.309C14.5567 28.2509 14.6835 28.1926 14.8085 28.1341L14.9945 28.0461L15.2681 27.9133L15.4025 27.8466L15.5353 27.7796L15.7959 27.6451C17.9841 26.4973 19.4708 25.2504 20.2601 23.8832C21.9325 20.9866 20.4719 17.8911 16.279 14.7354L15.9378 14.4796L15.7306 14.3206L15.5293 14.1629L15.3341 14.0063L15.1449 13.851L15.0525 13.7738L14.9616 13.6968L14.7843 13.5439L14.6552 13.4299L14.5294 13.3166L14.3669 13.1666L14.2103 13.0178L14.0595 12.8701L13.9863 12.7967L13.9145 12.7235L13.7754 12.5782C12.1179 10.8162 11.7478 9.30787 12.5003 8.00456C12.8833 7.34122 13.5472 6.68905 14.491 6.0539L14.6056 5.97777L14.7861 5.86165C14.8677 5.81012 14.9512 5.75872 15.0365 5.70743L15.1659 5.63059L15.3652 5.51568L15.5708 5.40119L15.7291 5.3156L15.8909 5.23025L16.1122 5.11685C16.2805 5.03195 16.454 4.94744 16.6329 4.86332L16.8136 4.77933L17.0599 4.66776L17.1854 4.61216L17.4411 4.50131L17.5714 4.44607L17.8365 4.33596L17.9714 4.28109L18.2459 4.17174L18.3855 4.11726L18.6694 4.00869L18.9596 3.90064L19.107 3.84682L19.4065 3.73958L19.7123 3.63289L20.0243 3.52676L20.1827 3.4739L20.5041 3.36861L20.8317 3.2639L21.1656 3.15977L21.5058 3.05624L21.8521 2.9533L22.2939 2.82549L22.7453 2.69864L23.3 2.54772L23.5317 2.48626ZM15.4604 0.200684C17.3307 0.200684 19.1231 0.534543 20.7811 1.14592L20.9583 1.21248L20.846 1.24648L20.2982 1.41534L20.1188 1.47206L19.7649 1.58617L19.4174 1.70117L19.0764 1.81706L18.7419 1.93386L18.4138 2.05157L18.2521 2.11077L17.8551 2.25979L17.4681 2.41027L17.1657 2.53171L17.017 2.59279L16.7243 2.71567C13.7331 3.99037 11.7728 5.41964 10.8354 7.04332C9.19922 9.87724 10.6832 12.9322 14.8765 16.0871L15.2177 16.343L15.4249 16.502L15.626 16.6599L15.7243 16.7385L15.9164 16.8947L16.0565 17.0111L16.1932 17.1269L16.3702 17.2803L16.4565 17.3566L16.6246 17.5084C16.7163 17.5924 16.8053 17.6759 16.8916 17.7589L17.0189 17.8831L17.2022 18.0678L17.3763 18.2509C19.0267 20.0252 19.3794 21.5636 18.5952 22.922C18.0877 23.8009 17.1189 24.6662 15.6909 25.5061L15.5598 25.5824L15.3473 25.7028L15.1285 25.8228C15.0052 25.8893 14.879 25.9557 14.7498 26.0219L14.5539 26.1211L14.313 26.2398L14.0658 26.3581L13.8122 26.4759L13.6831 26.5347L13.4201 26.652L13.1507 26.7688L12.8751 26.8852L12.7349 26.9432L12.4498 27.059L12.3049 27.1167L12.1584 27.1743L11.8607 27.2891L11.5567 27.4035L11.2464 27.5174L10.9297 27.6308L10.6068 27.7437L10.443 27.8L10.1106 27.9122L9.94205 27.9681L9.60024 28.0795L9.25212 28.1904L8.80814 28.3283L8.35432 28.4654L7.98419 28.5744L7.46763 28.723C3.03811 26.0233 0.0805664 21.1473 0.0805664 15.5805C0.0805664 7.08647 6.96636 0.200684 15.4604 0.200684Z" fill="#0080FF"/>
</g>
<defs>
<clipPath id="clip0_2460_24508">
<rect width="31" height="31" fill="white"/>
</clipPath>
</defs>
</svg>
