<svg width="44" height="44" viewBox="0 0 44 44" fill="none" xmlns="http://www.w3.org/2000/svg">
<path d="M36.0625 12.625H35.9688C35.5712 9.19913 33.9285 6.03879 31.353 3.74492C28.7775 1.45105 25.4489 0.183624 22 0.183624C18.5511 0.183624 15.2225 1.45105 12.647 3.74492C10.0715 6.03879 8.42883 9.19913 8.03125 12.625H7.9375C5.8655 12.625 3.87836 13.4481 2.41323 14.9133C0.9481 16.3784 0.125 18.3655 0.125 20.4375C0.125 22.5095 0.9481 24.4967 2.41323 25.9618C3.87836 27.4269 5.8655 28.25 7.9375 28.25H11.0625V14.1875C11.0625 11.2867 12.2148 8.50473 14.266 6.45356C16.3172 4.40238 19.0992 3.25004 22 3.25004C24.9008 3.25004 27.6828 4.40238 29.734 6.45356C31.7852 8.50473 32.9375 11.2867 32.9375 14.1875V29.8125C32.9364 31.2441 32.444 32.632 31.5424 33.744C30.6408 34.856 29.3848 35.6249 27.9844 35.9219C27.5673 34.4591 26.631 33.1985 25.351 32.3766C24.071 31.5546 22.5352 31.2277 21.0314 31.4571C19.5277 31.6865 18.1592 32.4565 17.1825 33.6226C16.2057 34.7888 15.6879 36.2712 15.7259 37.7919C15.7639 39.3125 16.3552 40.7672 17.389 41.8831C18.4227 42.999 19.828 43.6996 21.3413 43.8536C22.8547 44.0075 24.3723 43.6043 25.6096 42.7194C26.8469 41.8345 27.719 40.5288 28.0625 39.0469C30.2797 38.7182 32.3057 37.606 33.7734 35.9119C35.241 34.2178 36.0531 32.0539 36.0625 29.8125V28.25C38.1345 28.25 40.1216 27.4269 41.5868 25.9618C43.0519 24.4967 43.875 22.5095 43.875 20.4375C43.875 18.3655 43.0519 16.3784 41.5868 14.9133C40.1216 13.4481 38.1345 12.625 36.0625 12.625ZM3.25 20.4375C3.25 19.1943 3.74386 18.0021 4.62294 17.123C5.50201 16.2439 6.6943 15.75 7.9375 15.75V25.125C6.6943 25.125 5.50201 24.6312 4.62294 23.7521C3.74386 22.873 3.25 21.6807 3.25 20.4375V20.4375ZM22 40.75C21.3819 40.75 20.7777 40.5668 20.2638 40.2234C19.7499 39.88 19.3494 39.3919 19.1129 38.8209C18.8764 38.2499 18.8145 37.6216 18.935 37.0154C19.0556 36.4092 19.3533 35.8524 19.7903 35.4153C20.2273 34.9783 20.7842 34.6807 21.3903 34.5601C21.9965 34.4395 22.6249 34.5014 23.1959 34.7379C23.7669 34.9744 24.255 35.375 24.5983 35.8889C24.9417 36.4028 25.125 37.007 25.125 37.625C25.125 38.4538 24.7958 39.2487 24.2097 39.8348C23.6237 40.4208 22.8288 40.75 22 40.75V40.75ZM36.0625 25.125V15.75C37.3057 15.75 38.498 16.2439 39.3771 17.123C40.2561 18.0021 40.75 19.1943 40.75 20.4375C40.75 21.6807 40.2561 22.873 39.3771 23.7521C38.498 24.6312 37.3057 25.125 36.0625 25.125V25.125Z" fill="white"/>
</svg>
