<svg width="41" height="31" viewBox="0 0 41 31" fill="none" xmlns="http://www.w3.org/2000/svg">
<path d="M0 31L19.6903 0.160828L30.2444 6.86976L14.8375 31H0Z" fill="#FBBC04"/>
<path d="M19.2739 0H31.3943V31H19.2739V0Z" fill="#1A73E8"/>
<path d="M6.7142 12.5041C10.0321 12.5041 12.7219 9.82031 12.7219 6.50973C12.7219 3.19914 10.0321 0.515381 6.7142 0.515381C3.39626 0.515381 0.706543 3.19914 0.706543 6.50973C0.706543 9.82031 3.39626 12.5041 6.7142 12.5041Z" fill="#EA4335"/>
<path d="M40.0271 22.3865C40.0271 24.671 39.1176 26.8618 37.4987 28.4772C35.8797 30.0925 33.684 31 31.3945 31V13.7739C33.6839 13.7739 35.8795 14.6813 37.4984 16.2965C39.1173 17.9116 40.0269 20.1023 40.0271 22.3865Z" fill="#34A853"/>
<path d="M31.3941 13.7739V31C29.1191 30.9781 26.9447 30.061 25.3438 28.4481C23.7428 26.8353 22.8447 24.657 22.8447 22.3869C22.8447 20.1169 23.7428 17.9386 25.3438 16.3258C26.9447 14.7129 29.1191 13.7958 31.3941 13.7739Z" fill="#0D652D"/>
<path d="M38.0382 7.14509C38.0379 8.90312 37.3379 10.5891 36.0921 11.8322C34.8462 13.0753 33.1565 13.7738 31.3945 13.774V0.515381C33.1566 0.515593 34.8464 1.21417 36.0923 2.45746C37.3382 3.70075 38.0382 5.38692 38.0382 7.14509Z" fill="#1A73E8"/>
<path d="M31.3947 0.515381V13.774C29.6452 13.7548 27.9739 13.0479 26.7436 11.8068C25.5133 10.5656 24.8232 8.89038 24.8232 7.14469C24.8232 5.399 25.5133 3.72375 26.7436 2.4826C27.9739 1.24145 29.6452 0.534559 31.3947 0.515381Z" fill="#174EA6"/>
</svg>
