<svg width="36" height="36" viewBox="0 0 36 36" fill="none" xmlns="http://www.w3.org/2000/svg">
<path fill-rule="evenodd" clip-rule="evenodd" d="M25.5 13H33C33.6628 12.9993 34.2983 12.7357 34.767 12.267C35.2357 11.7983 35.4993 11.1628 35.5 10.5V3C35.4993 2.33717 35.2357 1.70169 34.767 1.233C34.2983 0.76431 33.6628 0.500695 33 0.5H3C2.33717 0.500695 1.70169 0.76431 1.233 1.233C0.76431 1.70169 0.500695 2.33717 0.5 3V10.5C0.500695 11.1628 0.76431 11.7983 1.233 12.267C1.70169 12.7357 2.33717 12.9993 3 13H8V10.5H3V3H33V10.5H25.5V13ZM30.5 23V24.25H28V21.75C28 21.4185 27.8683 21.1005 27.6339 20.8661C27.3995 20.6317 27.0815 20.5 26.75 20.5C26.4185 20.5 26.1005 20.6317 25.8661 20.8661C25.6317 21.1005 25.5 21.4185 25.5 21.75V24.25H23V20.5C23 20.1685 22.8683 19.8505 22.6339 19.6161C22.3995 19.3817 22.0815 19.25 21.75 19.25C21.4185 19.25 21.1005 19.3817 20.8661 19.6161C20.6317 19.8505 20.5 20.1685 20.5 20.5V24.25H18V10.5C18 10.1685 17.8683 9.85054 17.6339 9.61612C17.3995 9.3817 17.0815 9.25 16.75 9.25C16.4185 9.25 16.1005 9.3817 15.8661 9.61612C15.6317 9.85054 15.5 10.1685 15.5 10.5V29.1194L8.75 24.499C8.56416 24.3599 8.34327 24.2753 8.11206 24.2546C7.88086 24.2339 7.64846 24.278 7.44088 24.3819C7.2333 24.4858 7.05873 24.6454 6.93671 24.8429C6.81469 25.0403 6.75004 25.2679 6.75 25.5C6.74972 25.6634 6.78177 25.8252 6.84431 25.9762C6.90684 26.1271 6.99863 26.2642 7.11437 26.3795L15.0877 33.6525L13.4029 35.5L5.35412 28.1577C4.68462 27.4915 4.29127 26.5972 4.25273 25.6535C4.21418 24.7098 4.53328 23.7863 5.14621 23.0677C5.75915 22.3491 6.62075 21.8883 7.55872 21.7776C8.4967 21.6668 9.44191 21.9142 10.2054 22.4703L10.2064 22.469L13 24.3806V10.5C13 9.50544 13.3951 8.55161 14.0983 7.84835C14.8016 7.14509 15.7554 6.75 16.75 6.75C17.7446 6.75 18.6984 7.14509 19.4016 7.84835C20.1049 8.55161 20.5 9.50544 20.5 10.5V16.9807C20.9002 16.8323 21.3231 16.7542 21.75 16.75C22.382 16.7512 23.0034 16.9125 23.5563 17.2188C24.1091 17.5252 24.5754 17.9665 24.9115 18.5017C25.7434 18.0172 26.7316 17.8767 27.6656 18.1102C28.5996 18.3437 29.4055 18.9327 29.9115 19.7517C30.4701 19.4271 31.1039 19.2541 31.75 19.25C32.7442 19.2511 33.6974 19.6465 34.4004 20.3496C35.1035 21.0526 35.4989 22.0058 35.5 23V35.5H33V23C33 22.6685 32.8683 22.3505 32.6339 22.1161C32.3995 21.8817 32.0815 21.75 31.75 21.75C31.4185 21.75 31.1005 21.8817 30.8661 22.1161C30.6317 22.3505 30.5 22.6685 30.5 23Z" fill="#553CDF"/>
</svg>
