<svg width="60" height="60" viewBox="0 0 60 60" fill="none" xmlns="http://www.w3.org/2000/svg">
<circle cx="30" cy="30" r="30" fill="#553CDF"/>
<g clip-path="url(#clip0_2497_21886)">
<path d="M27.0208 25.6667H18.8958C17.8504 25.6667 17 24.8163 17 23.7708V18.8958C17 17.8504 17.8504 17 18.8958 17H27.0208C28.0663 17 28.9167 17.8504 28.9167 18.8958V23.7708C28.9167 24.8163 28.0663 25.6667 27.0208 25.6667ZM18.8958 18.625C18.7464 18.625 18.625 18.7464 18.625 18.8958V23.7708C18.625 23.9203 18.7464 24.0417 18.8958 24.0417H27.0208C27.1703 24.0417 27.2917 23.9203 27.2917 23.7708V18.8958C27.2917 18.7464 27.1703 18.625 27.0208 18.625H18.8958Z" fill="white"/>
<path d="M27.0208 43.0002H18.8958C17.8504 43.0002 17 42.1498 17 41.1045V29.7295C17 28.6839 17.8504 27.8335 18.8958 27.8335H27.0208C28.0663 27.8335 28.9167 28.6839 28.9167 29.7295V41.1045C28.9167 42.1498 28.0663 43.0002 27.0208 43.0002ZM18.8958 29.4585C18.7464 29.4585 18.625 29.5799 18.625 29.7295V41.1045C18.625 41.2538 18.7464 41.3752 18.8958 41.3752H27.0208C27.1703 41.3752 27.2917 41.2538 27.2917 41.1045V29.7295C27.2917 29.5799 27.1703 29.4585 27.0208 29.4585H18.8958Z" fill="white"/>
<path d="M41.1045 43.0002H32.9795C31.9339 43.0002 31.0835 42.1498 31.0835 41.1045V36.2295C31.0835 35.1839 31.9339 34.3335 32.9795 34.3335H41.1045C42.1498 34.3335 43.0002 35.1839 43.0002 36.2295V41.1045C43.0002 42.1498 42.1498 43.0002 41.1045 43.0002ZM32.9795 35.9585C32.8299 35.9585 32.7085 36.0799 32.7085 36.2295V41.1045C32.7085 41.2538 32.8299 41.3752 32.9795 41.3752H41.1045C41.2538 41.3752 41.3752 41.2538 41.3752 41.1045V36.2295C41.3752 36.0799 41.2538 35.9585 41.1045 35.9585H32.9795Z" fill="white"/>
<path d="M41.1045 32.1667H32.9795C31.9339 32.1667 31.0835 31.3163 31.0835 30.2708V18.8958C31.0835 17.8504 31.9339 17 32.9795 17H41.1045C42.1498 17 43.0002 17.8504 43.0002 18.8958V30.2708C43.0002 31.3163 42.1498 32.1667 41.1045 32.1667ZM32.9795 18.625C32.8299 18.625 32.7085 18.7464 32.7085 18.8958V30.2708C32.7085 30.4203 32.8299 30.5417 32.9795 30.5417H41.1045C41.2538 30.5417 41.3752 30.4203 41.3752 30.2708V18.8958C41.3752 18.7464 41.2538 18.625 41.1045 18.625H32.9795Z" fill="white"/>
</g>
<defs>
<clipPath id="clip0_2497_21886">
<rect width="26" height="26" fill="white" transform="translate(17 17)"/>
</clipPath>
</defs>
</svg>
