<svg width="36" height="36" viewBox="0 0 36 36" fill="none" xmlns="http://www.w3.org/2000/svg">
<path fill-rule="evenodd" clip-rule="evenodd" d="M17.4076 20.35C17.5896 20.4484 17.7933 20.5 18.0002 20.5C18.2071 20.5 18.4108 20.4484 18.5928 20.35L34.8428 11.6C35.0415 11.493 35.2075 11.3341 35.3231 11.1404C35.4388 10.9466 35.4999 10.7252 35.4999 10.4995C35.4999 10.2739 35.4388 10.0524 35.3231 9.8587C35.2075 9.66496 35.0415 9.50614 34.8428 9.39911L18.5928 0.649107C18.4108 0.550839 18.2071 0.49939 18.0002 0.49939C17.7933 0.49939 17.5897 0.550839 17.4076 0.649107L1.15758 9.39911C0.958927 9.50614 0.79295 9.66496 0.677261 9.8587C0.561573 10.0524 0.500488 10.2739 0.500488 10.4995C0.500488 10.7252 0.561573 10.9466 0.677261 11.1404C0.79295 11.3341 0.958927 11.493 1.15758 11.6L17.4076 20.35ZM18.0002 17.8304L4.38696 10.5L18.0002 3.16973L31.6135 10.5L18.0002 17.8304ZM18.0002 28.0001C17.7932 28.0001 17.5896 27.9486 17.4075 27.8501L1.15753 19.1001L2.34278 16.9001L18.0002 25.3305L33.6575 16.9001L34.8428 19.101L18.5928 27.851C18.4107 27.9492 18.207 28.0004 18.0002 28.0001ZM18.0002 35.5001C17.7932 35.5001 17.5896 35.4486 17.4075 35.3501L1.15753 26.6001L2.34278 24.4001L18.0002 32.8305L33.6575 24.4001L34.8428 26.601L18.5928 35.351C18.4107 35.4492 18.207 35.5004 18.0002 35.5001Z" fill="#553CDF"/>
</svg>
