<svg width="40" height="40" viewBox="0 0 40 40" fill="none" xmlns="http://www.w3.org/2000/svg">
<path fill-rule="evenodd" clip-rule="evenodd" d="M19.4076 22.35C19.5896 22.4484 19.7933 22.5 20.0002 22.5C20.2071 22.5 20.4108 22.4484 20.5928 22.35L36.8428 13.6C37.0415 13.493 37.2075 13.3341 37.3231 13.1404C37.4388 12.9466 37.4999 12.7252 37.4999 12.4995C37.4999 12.2739 37.4388 12.0524 37.3231 11.8587C37.2075 11.665 37.0415 11.5061 36.8428 11.3991L20.5928 2.64911C20.4108 2.55084 20.2071 2.49939 20.0002 2.49939C19.7933 2.49939 19.5897 2.55084 19.4076 2.64911L3.15758 11.3991C2.95893 11.5061 2.79295 11.665 2.67726 11.8587C2.56157 12.0524 2.50049 12.2739 2.50049 12.4995C2.50049 12.7252 2.56157 12.9466 2.67726 13.1404C2.79295 13.3341 2.95893 13.493 3.15758 13.6L19.4076 22.35ZM20.0002 19.8304L6.38696 12.5L20.0002 5.16973L33.6135 12.5L20.0002 19.8304ZM20.0002 30.0001C19.7932 30.0001 19.5896 29.9486 19.4075 29.8501L3.15753 21.1001L4.34278 18.9001L20.0002 27.3305L35.6575 18.9001L36.8428 21.101L20.5928 29.851C20.4107 29.9492 20.207 30.0004 20.0002 30.0001ZM20.0002 37.5001C19.7932 37.5001 19.5896 37.4486 19.4075 37.3501L3.15753 28.6001L4.34278 26.4001L20.0002 34.8305L35.6575 26.4001L36.8428 28.601L20.5928 37.351C20.4107 37.4492 20.207 37.5004 20.0002 37.5001Z" fill="#110C2D"/>
</svg>
