<svg width="54" height="54" viewBox="0 0 54 54" fill="none" xmlns="http://www.w3.org/2000/svg">
<path d="M29.7218 28.8067C29.5858 28.8067 29.4498 28.7386 29.3137 28.6706C29.0417 28.4666 28.9737 27.9905 29.1777 27.7184L33.7346 21.7333C33.9386 21.4613 34.4147 21.3932 34.6868 21.5973C34.9588 21.8013 35.0268 22.2774 34.8228 22.5495L30.2659 28.5346C30.1299 28.6706 29.9259 28.8067 29.7218 28.8067Z" fill="#3E28C7" fill-opacity="0.2"/>
<path d="M30.8097 38.5325C30.6737 38.5325 30.5377 38.4645 30.4016 38.3965C30.1296 38.1925 30.0616 37.7164 30.2656 37.4443L35.2306 31.2552C35.4346 30.9831 35.9107 30.9151 36.1827 31.1191C36.4548 31.3232 36.5228 31.7993 36.3188 32.0713L31.3538 38.2605C31.2178 38.4645 31.0138 38.5325 30.8097 38.5325Z" fill="#3E28C7" fill-opacity="0.2"/>
<path d="M39.7877 27.1743C39.6517 27.1743 39.5157 27.1063 39.3797 27.0383C39.1076 26.8343 39.0396 26.3582 39.2436 26.0861L43.4604 20.305C43.6645 20.033 44.0726 19.965 44.4126 20.169C44.6847 20.373 44.7527 20.8491 44.5487 21.1212L40.3318 26.9023C40.1958 27.0383 39.9918 27.1743 39.7877 27.1743Z" fill="#3E28C7" fill-opacity="0.2"/>
<path d="M39.5156 36.1521C39.3115 36.1521 39.1755 36.0841 39.0395 35.9481C38.7674 35.676 38.7674 35.2679 39.0395 34.9959L44.0044 29.8949C44.2765 29.6228 44.6846 29.6228 44.9566 29.8949C45.2287 30.1669 45.2287 30.575 44.9566 30.8471L39.9917 35.9481C39.8556 36.0841 39.6516 36.1521 39.5156 36.1521Z" fill="#3E28C7" fill-opacity="0.2"/>
<path d="M38.9717 17.2444C38.8357 17.2444 38.6316 17.1764 38.4956 17.1084C38.2235 16.8364 38.1555 16.4283 38.4276 16.1562L42.3043 11.5994C42.5764 11.3273 42.9845 11.2593 43.2565 11.5313C43.5286 11.8034 43.5966 12.2115 43.3245 12.4835L39.4478 17.0404C39.3798 17.1084 39.1757 17.2444 38.9717 17.2444Z" fill="#3E28C7" fill-opacity="0.2"/>
<path d="M19.5199 38.9406C19.3838 38.9406 19.2478 38.8726 19.1118 38.8046C18.7717 38.6005 18.7037 38.1925 18.9077 37.8524L21.9683 33.2275C22.1724 32.8874 22.5804 32.8194 22.9205 33.0235C23.2606 33.2275 23.3286 33.6356 23.1245 33.9757L20.064 38.6005C19.9279 38.8726 19.7239 38.9406 19.5199 38.9406Z" fill="#3E28C7" fill-opacity="0.2"/>
<path d="M17.2075 31.1191C17.0715 31.1191 16.8675 31.0511 16.7314 30.9831C16.4594 30.711 16.3914 30.303 16.6634 30.0309L22.1725 23.6377C22.4445 23.3656 22.8526 23.2976 23.1247 23.5697C23.3967 23.8417 23.4647 24.2498 23.1927 24.5219L17.6836 30.9151C17.5476 31.0511 17.4116 31.1191 17.2075 31.1191Z" fill="#3E28C7" fill-opacity="0.2"/>
<path d="M27.7495 17.4485C27.5454 17.4485 27.4094 17.3805 27.2734 17.2445C27.0013 16.9724 27.0013 16.5643 27.2734 16.2923L32.9185 10.7152C33.1905 10.4432 33.5986 10.4432 33.8706 10.7152C34.1427 10.9873 34.1427 11.3953 33.8706 11.6674L28.2256 17.2445C28.0895 17.3805 27.8855 17.4485 27.7495 17.4485Z" fill="#3E28C7" fill-opacity="0.2"/>
<path d="M19.0434 20.101C18.9074 20.101 18.7033 20.033 18.5673 19.897C18.2953 19.6249 18.2953 19.2168 18.5673 18.9448L22.5801 14.66C22.8521 14.3879 23.2602 14.3879 23.5323 14.66C23.8043 14.932 23.8043 15.3401 23.5323 15.6122L19.5195 19.897C19.4515 20.033 19.2475 20.101 19.0434 20.101Z" fill="#3E28C7" fill-opacity="0.2"/>
<path d="M26.457 9.2189C26.321 9.2189 26.117 9.15089 25.9809 9.08287C25.7089 8.81082 25.6409 8.40275 25.9129 8.1307L30.1978 3.23375C30.4698 2.9617 30.8779 2.89369 31.1499 3.16574C31.422 3.4378 31.49 3.84587 31.2179 4.11792L26.9331 9.01486C26.8651 9.15088 26.6611 9.2189 26.457 9.2189Z" fill="#3E28C7" fill-opacity="0.2"/>
<path d="M8.63756 27.9225C8.50153 27.9225 8.2975 27.8545 8.22948 27.7865C7.95743 27.5144 7.88942 27.1064 8.16147 26.8343L11.4261 23.0256C11.6981 22.7535 12.1062 22.6855 12.3783 22.9575C12.6503 23.2296 12.7183 23.6377 12.4463 23.9097L9.18166 27.7185C9.04564 27.8545 8.8416 27.9225 8.63756 27.9225Z" fill="#3E28C7" fill-opacity="0.2"/>
<path d="M11.4942 16.0882C11.3582 16.0882 11.1542 16.0202 11.0181 15.8842C10.7461 15.6121 10.7461 15.2041 10.9501 14.932L15.8471 9.55897C16.1191 9.28692 16.5272 9.28693 16.7992 9.49096C17.0713 9.76302 17.0713 10.1711 16.8673 10.4431L11.9703 15.8162C11.8343 16.0202 11.6303 16.0882 11.4942 16.0882Z" fill="#3E28C7" fill-opacity="0.2"/>
<path d="M21.0161 5.75026C20.8801 5.75026 20.6761 5.68224 20.54 5.61423C20.268 5.34218 20.2 4.9341 20.472 4.66205L24.3488 0.241204C24.6208 -0.0308484 25.0289 -0.0988655 25.3009 0.173186C25.573 0.445239 25.641 0.853323 25.369 1.12537L21.4922 5.54622C21.4242 5.68225 21.2202 5.75026 21.0161 5.75026Z" fill="#3E28C7" fill-opacity="0.2"/>
<path d="M1.15639 26.6983C1.02037 26.6983 0.884342 26.6303 0.748316 26.5622C0.476264 26.3582 0.408251 25.8821 0.61229 25.6101L4.89711 20.169C5.10115 19.897 5.57724 19.829 5.84929 20.033C6.12134 20.237 6.18936 20.7131 5.98532 20.9852L1.7005 26.4262C1.56447 26.5623 1.36043 26.6983 1.15639 26.6983Z" fill="#3E28C7" fill-opacity="0.2"/>
<path d="M0.68013 17.3125C0.544104 17.3125 0.340065 17.2444 0.204039 17.1084C-0.068013 16.8364 -0.068013 16.4283 0.204039 16.1562L5.37303 10.5792C5.64508 10.3071 6.05316 10.3071 6.32521 10.5792C6.59726 10.8512 6.59726 11.2593 6.32521 11.5313L1.15622 17.1084C1.0202 17.2444 0.884169 17.3125 0.68013 17.3125Z" fill="#3E28C7" fill-opacity="0.2"/>
<path d="M11.9022 5.88631C11.6982 5.88631 11.5621 5.8183 11.4261 5.68227C11.1541 5.41022 11.2221 5.00214 11.4941 4.73009L15.4389 1.1254C15.7109 0.853348 16.119 0.921355 16.3911 1.19341C16.6631 1.46546 16.5951 1.87354 16.3231 2.1456L12.3783 5.75029C12.2423 5.8183 12.0382 5.88631 11.9022 5.88631Z" fill="#3E28C7" fill-opacity="0.2"/>
<path d="M37.339 7.85866C37.203 7.85866 37.067 7.79065 36.9309 7.72263C36.6589 7.51859 36.5909 7.04251 36.7949 6.77046C37.7471 5.4102 38.9033 4.18596 40.1275 3.09775C40.3996 2.8257 40.8077 2.89371 41.0797 3.16576C41.3518 3.43782 41.2838 3.84589 41.0117 4.11794C39.8555 5.13814 38.7673 6.36238 37.8831 7.58661C37.7471 7.72264 37.5431 7.85866 37.339 7.85866Z" fill="#3E28C7" fill-opacity="0.2"/>
<path d="M47.9491 15.1361C47.8131 15.1361 47.677 15.0681 47.541 15.0001C47.269 14.728 47.2009 14.3199 47.473 14.0479L50.3295 10.5792C50.6016 10.3072 51.0097 10.2392 51.2817 10.5112C51.5538 10.7833 51.6218 11.1913 51.3497 11.4634L48.4932 14.932C48.3572 15.0001 48.1531 15.1361 47.9491 15.1361Z" fill="#3E28C7" fill-opacity="0.2"/>
<path d="M49.0376 25.0659C48.9015 25.0659 48.8335 25.0659 48.6975 24.9979C48.3574 24.7939 48.2214 24.3858 48.4255 24.0457L52.5062 16.6323C52.7103 16.2923 53.1184 16.1562 53.4584 16.3603C53.7985 16.5643 53.9345 16.9724 53.7305 17.3125L49.6497 24.7259C49.5137 24.9299 49.2416 25.0659 49.0376 25.0659Z" fill="#3E28C7" fill-opacity="0.2"/>
<path d="M50.0577 34.9959C49.9217 34.9959 49.8536 34.9958 49.7176 34.9278C49.3776 34.7238 49.3095 34.3157 49.4456 33.9757L52.7102 28.3986C52.9142 28.0585 53.3223 27.9905 53.6624 28.1265C54.0024 28.3306 54.0705 28.7386 53.9344 29.0787L50.6698 34.6558C50.5338 34.9278 50.3297 34.9959 50.0577 34.9959Z" fill="#3E28C7" fill-opacity="0.2"/>
<path d="M44.4123 46.354C44.2763 46.354 44.1402 46.354 44.0722 46.218C43.7322 46.014 43.6642 45.6059 43.8682 45.2658L46.8608 40.5049C47.0648 40.1648 47.4729 40.0968 47.8129 40.3009C48.153 40.5049 48.221 40.913 48.017 41.2531L45.0244 46.014C44.8204 46.218 44.6163 46.354 44.4123 46.354Z" fill="#3E28C7" fill-opacity="0.2"/>
<path d="M34.7549 50.5708C34.6188 50.5708 34.5508 50.5708 34.4148 50.5028C34.0747 50.2988 33.9387 49.8907 34.1427 49.5506L37.8835 42.4773C38.0875 42.1372 38.4956 42.0012 38.8356 42.2052C39.1757 42.4093 39.3117 42.8174 39.1077 43.1574L35.367 50.2308C35.231 50.4348 35.0269 50.5708 34.7549 50.5708Z" fill="#3E28C7" fill-opacity="0.2"/>
<path d="M23.7364 53.0193C23.6004 53.0193 23.5324 53.0193 23.3963 52.9513C23.0563 52.7473 22.9883 52.3392 23.1243 51.9991L26.4569 46.286C26.661 45.946 27.069 45.878 27.4091 46.014C27.7492 46.218 27.8172 46.6261 27.6811 46.9662L24.3485 52.6793C24.2125 52.9513 23.9404 53.0193 23.7364 53.0193Z" fill="#3E28C7" fill-opacity="0.2"/>
<path d="M10.814 43.3614C10.678 43.3614 10.542 43.2934 10.4059 43.2254C10.0659 43.0214 9.99787 42.6133 10.2699 42.2732L13.7386 37.3083C13.9426 36.9682 14.3507 36.9002 14.6908 37.1723C15.0308 37.3763 15.0988 37.7844 14.8268 38.1244L11.3581 43.0894C11.2221 43.2934 11.0181 43.3614 10.814 43.3614Z" fill="#3E28C7" fill-opacity="0.2"/>
<path d="M2.92476 39.5527C2.72072 39.5527 2.58469 39.4847 2.44867 39.3487C2.17662 39.0766 2.17662 38.6686 2.44867 38.3965C3.6729 37.1723 4.82912 35.88 5.78131 34.4517C5.98534 34.1117 6.39342 34.0437 6.73349 34.2477C7.07355 34.4517 7.14157 34.8598 6.93753 35.1999C5.91733 36.6962 4.76111 38.1245 3.40085 39.4167C3.26482 39.4847 3.06079 39.5527 2.92476 39.5527Z" fill="#3E28C7" fill-opacity="0.2"/>
<path d="M13.3308 53.9715C13.1947 53.9715 13.0587 53.9714 12.9907 53.9034C12.6506 53.6994 12.5826 53.2913 12.7866 52.9513L16.1193 47.5102C16.3233 47.1702 16.7314 47.1021 17.0715 47.3062C17.4115 47.5102 17.4795 47.9183 17.2755 48.2584L13.9429 53.6994C13.7388 53.8354 13.5348 53.9715 13.3308 53.9715Z" fill="#3E28C7" fill-opacity="0.2"/>
</svg>
