<svg width="40" height="31" viewBox="0 0 40 31" fill="none" xmlns="http://www.w3.org/2000/svg">
<g clip-path="url(#clip0_2459_24438)">
<path fill-rule="evenodd" clip-rule="evenodd" d="M8.12777 0.00384521C5.90248 0.00384521 4.25587 1.94685 4.32961 4.05398C4.40037 6.07837 4.30843 8.70024 3.6468 10.8384C2.98281 12.9825 1.86065 14.3413 0.0273438 14.5156V16.4846C1.86065 16.6594 2.98281 18.0175 3.64673 20.1619C4.30843 22.3 4.40029 24.9219 4.32953 26.9463C4.2558 29.0531 5.9024 30.9964 8.12807 30.9964H30.9299C33.1552 30.9964 34.8015 29.0534 34.7277 26.9463C34.657 24.9219 34.7489 22.3 35.4106 20.1619C36.0745 18.0175 37.194 16.6589 39.0273 16.4846V14.5156C37.194 14.3409 36.0746 12.9828 35.4106 10.8384C34.7488 8.70054 34.657 6.07837 34.7277 4.05398C34.8015 1.94715 33.1552 0.00384521 30.9299 0.00384521H8.12746H8.12777ZM26.468 19.0818C26.468 21.9832 24.2986 23.7429 20.6983 23.7429H14.5697C14.3944 23.7429 14.2263 23.6734 14.1023 23.5497C13.9783 23.4261 13.9087 23.2584 13.9087 23.0835V7.91689C13.9087 7.742 13.9783 7.57427 14.1023 7.4506C14.2263 7.32694 14.3944 7.25747 14.5697 7.25747H20.6634C23.6655 7.25747 25.6356 8.87965 25.6356 11.3702C25.6356 13.1183 24.3103 14.6833 22.6217 14.9574V15.0486C24.9203 15.3001 26.468 16.8883 26.468 19.0818ZM20.0301 9.34781H16.5356V14.2718H19.4788C21.7541 14.2718 23.0086 13.3578 23.0086 11.7242C23.0084 10.1932 21.9298 9.34781 20.0301 9.34781ZM16.5356 16.2255V21.6519H20.1587C22.5276 21.6519 23.7824 20.7036 23.7824 18.9216C23.7824 17.1395 22.4924 16.2252 20.0063 16.2252H16.5356V16.2255Z" fill="url(#paint0_linear_2459_24438)"/>
</g>
<defs>
<linearGradient id="paint0_linear_2459_24438" x1="19.5273" y1="0.00384521" x2="19.5273" y2="30.9964" gradientUnits="userSpaceOnUse">
<stop stop-color="#8612FB"/>
<stop offset="1" stop-color="#8912FC"/>
</linearGradient>
<clipPath id="clip0_2459_24438">
<rect width="39" height="31" fill="white" transform="translate(0.0273438)"/>
</clipPath>
</defs>
</svg>
