<svg width="50" height="36" viewBox="0 0 50 36" fill="none" xmlns="http://www.w3.org/2000/svg">
<path d="M6.25 32.0625H3.90625C3.69905 32.0625 3.50034 32.1448 3.35382 32.2913C3.20731 32.4378 3.125 32.6365 3.125 32.8438C3.125 33.051 3.20731 33.2497 3.35382 33.3962C3.50034 33.5427 3.69905 33.625 3.90625 33.625H6.25C6.4572 33.625 6.65591 33.5427 6.80243 33.3962C6.94894 33.2497 7.03125 33.051 7.03125 32.8438C7.03125 32.6365 6.94894 32.4378 6.80243 32.2913C6.65591 32.1448 6.4572 32.0625 6.25 32.0625Z" fill="white"/>
<path d="M9.375 32.0625H8.59375C8.38655 32.0625 8.18784 32.1448 8.04132 32.2913C7.89481 32.4378 7.8125 32.6365 7.8125 32.8438C7.8125 33.051 7.89481 33.2497 8.04132 33.3962C8.18784 33.5427 8.38655 33.625 8.59375 33.625H9.375C9.5822 33.625 9.78091 33.5427 9.92743 33.3962C10.0739 33.2497 10.1562 33.051 10.1562 32.8438C10.1562 32.6365 10.0739 32.4378 9.92743 32.2913C9.78091 32.1448 9.5822 32.0625 9.375 32.0625Z" fill="white"/>
<path d="M46.0938 9.40625H44.5312V3.15625C44.5302 2.32778 44.2006 1.53356 43.6148 0.94774C43.0289 0.361924 42.2347 0.0323352 41.4062 0.03125H8.59375C7.76523 0.0321805 6.97092 0.36172 6.38507 0.947569C5.79922 1.53342 5.46968 2.32773 5.46875 3.15625V17.2188H3.90625C3.07773 17.2197 2.28342 17.5492 1.69757 18.1351C1.11172 18.7209 0.782181 19.5152 0.78125 20.3438V32.8438C0.782181 33.6723 1.11172 34.4666 1.69757 35.0524C2.28342 35.6383 3.07773 35.9678 3.90625 35.9688H11.7188C12.5472 35.9677 13.3414 35.6381 13.9273 35.0523C14.5131 34.4664 14.8427 33.6722 14.8438 32.8438V30.5H21.6553L21.2646 32.0625H18.75C18.5428 32.0625 18.3441 32.1448 18.1976 32.2913C18.0511 32.4378 17.9688 32.6366 17.9688 32.8438V35.1875C17.9688 35.3947 18.0511 35.5934 18.1976 35.7399C18.3441 35.8864 18.5428 35.9688 18.75 35.9688H46.0938C46.9222 35.9677 47.7164 35.6381 48.3023 35.0523C48.8881 34.4664 49.2177 33.6722 49.2188 32.8438V12.5312C49.2177 11.7028 48.8881 10.9086 48.3023 10.3227C47.7164 9.73692 46.9222 9.40734 46.0938 9.40625ZM13.2812 32.8438C13.2807 33.258 13.1159 33.6551 12.823 33.948C12.5301 34.2409 12.133 34.4057 11.7188 34.4062H3.90625C3.49202 34.4057 3.0949 34.2409 2.802 33.948C2.50909 33.6551 2.34429 33.258 2.34375 32.8438V20.3438C2.34429 19.9295 2.50909 19.5324 2.802 19.2395C3.0949 18.9466 3.49202 18.7818 3.90625 18.7812H4.90527L5.50879 20.5908C5.56065 20.7464 5.66014 20.8817 5.79317 20.9776C5.9262 21.0734 6.08602 21.125 6.25 21.125H9.375C9.53898 21.125 9.6988 21.0734 9.83183 20.9776C9.96486 20.8817 10.0644 20.7464 10.1162 20.5908L10.7197 18.7812H11.7188C12.133 18.7818 12.5301 18.9466 12.823 19.2395C13.1159 19.5324 13.2807 19.9295 13.2812 20.3438V32.8438ZM6.55273 18.7812H9.07227L8.81152 19.5625H6.81348L6.55273 18.7812ZM14.8438 28.9375V26.5938H28.9062V28.9375H14.8438ZM28.9062 30.5V32.0625H28.7354L28.3447 30.5H28.9062ZM27.124 32.0625H22.876L23.2666 30.5H26.7334L27.124 32.0625ZM19.5312 34.4062V33.625H29.0049C29.0764 33.8988 29.1848 34.1616 29.3271 34.4062H19.5312ZM28.9062 12.5312V25.0312H14.8438V20.3438C14.8427 19.5153 14.5131 18.7211 13.9273 18.1352C13.3414 17.5494 12.5472 17.2198 11.7188 17.2188H7.03125V3.15625C7.03179 2.74202 7.19659 2.3449 7.48949 2.052C7.7824 1.75909 8.17952 1.59429 8.59375 1.59375H41.4062C41.8205 1.59429 42.2176 1.75909 42.5105 2.052C42.8034 2.3449 42.9682 2.74202 42.9688 3.15625V9.40625H32.0312C31.2028 9.40734 30.4086 9.73692 29.8227 10.3227C29.2369 10.9086 28.9073 11.7028 28.9062 12.5312ZM47.6562 32.8438C47.6557 33.258 47.4909 33.6551 47.198 33.948C46.9051 34.2409 46.508 34.4057 46.0938 34.4062H32.0312C31.617 34.4057 31.2199 34.2409 30.927 33.948C30.6341 33.6551 30.4693 33.258 30.4688 32.8438V12.5312C30.4693 12.117 30.6341 11.7199 30.927 11.427C31.2199 11.1341 31.617 10.9693 32.0312 10.9688H46.0938C46.508 10.9693 46.9051 11.1341 47.198 11.427C47.4909 11.7199 47.6557 12.117 47.6562 12.5312V32.8438Z" fill="white"/>
<path d="M46.0938 11.75H32.0312C31.824 11.75 31.6253 11.8323 31.4788 11.9788C31.3323 12.1253 31.25 12.324 31.25 12.5312V30.5C31.25 30.7072 31.3323 30.9059 31.4788 31.0524C31.6253 31.1989 31.824 31.2812 32.0312 31.2812H46.0938C46.301 31.2812 46.4997 31.1989 46.6462 31.0524C46.7927 30.9059 46.875 30.7072 46.875 30.5V12.5312C46.875 12.324 46.7927 12.1253 46.6462 11.9788C46.4997 11.8323 46.301 11.75 46.0938 11.75ZM45.3125 29.7188H32.8125V13.3125H45.3125V29.7188Z" fill="white"/>
<path d="M38.2812 33.625C38.7127 33.625 39.0625 33.2752 39.0625 32.8438C39.0625 32.4123 38.7127 32.0625 38.2812 32.0625C37.8498 32.0625 37.5 32.4123 37.5 32.8438C37.5 33.2752 37.8498 33.625 38.2812 33.625Z" fill="white"/>
</svg>
