<svg width="31" height="31" viewBox="0 0 31 31" fill="none" xmlns="http://www.w3.org/2000/svg">
<path d="M0 27.6786C0 29.5098 1.49021 31 3.32143 31H27.6786C29.5098 31 31 29.5098 31 27.6786V8.85714H0V27.6786ZM20.253 17.3899C19.8201 16.957 19.8201 16.2573 20.253 15.8244C20.6859 15.3915 21.3856 15.3915 21.8185 15.8244L26.247 20.253C26.6799 20.6859 26.6799 21.3856 26.247 21.8185L21.8185 26.247C21.6026 26.4629 21.3191 26.5714 21.0357 26.5714C20.7523 26.5714 20.4689 26.4629 20.253 26.247C19.8201 25.8141 19.8201 25.1144 20.253 24.6815L23.8988 21.0357L20.253 17.3899ZM12.7908 15.6162C13.3389 15.3428 14.002 15.5642 14.2766 16.1111L18.7052 24.9683C18.9786 25.5152 18.7572 26.1806 18.2103 26.4541C18.0509 26.5338 17.8826 26.5703 17.7165 26.5703C17.3102 26.5703 16.9194 26.3467 16.7245 25.9581L12.2959 17.1009C12.0225 16.554 12.2439 15.8897 12.7908 15.6162ZM4.75296 20.253L9.18154 15.8244C9.61443 15.3915 10.3141 15.3915 10.747 15.8244C11.1799 16.2573 11.1799 16.957 10.747 17.3899L7.10121 21.0357L10.747 24.6815C11.1799 25.1144 11.1799 25.8141 10.747 26.247C10.5311 26.4629 10.2477 26.5714 9.96428 26.5714C9.68086 26.5714 9.39743 26.4629 9.18154 26.247L4.75296 21.8185C4.32007 21.3856 4.32007 20.6859 4.75296 20.253ZM27.6786 0H3.32143C1.49021 0 0 1.49021 0 3.32143V6.64286H31V3.32143C31 1.49021 29.5098 0 27.6786 0ZM21.0357 4.42857C20.4246 4.42857 19.9286 3.93257 19.9286 3.32143C19.9286 2.71029 20.4246 2.21429 21.0357 2.21429C21.6469 2.21429 22.1429 2.71029 22.1429 3.32143C22.1429 3.93257 21.6469 4.42857 21.0357 4.42857ZM25.4643 4.42857C24.8531 4.42857 24.3571 3.93257 24.3571 3.32143C24.3571 2.71029 24.8531 2.21429 25.4643 2.21429C26.0754 2.21429 26.5714 2.71029 26.5714 3.32143C26.5714 3.93257 26.0754 4.42857 25.4643 4.42857Z" fill="#0591CD"/>
</svg>
