<svg width="60" height="60" viewBox="0 0 60 60" fill="none" xmlns="http://www.w3.org/2000/svg">
<circle cx="30" cy="30" r="30" fill="#553CDF"/>
<g clip-path="url(#clip0_2497_21885)">
<path d="M34.6667 30.6668H14.6667C14.2987 30.6668 14 30.3682 14 30.0002C14 29.6322 14.2987 29.3335 14.6667 29.3335H34.6667C35.0347 29.3335 35.3333 29.6322 35.3333 30.0002C35.3333 30.3682 35.0347 30.6668 34.6667 30.6668Z" fill="white"/>
<path d="M29.3335 36C29.1628 36 28.9922 35.9346 28.8615 35.8053C28.6015 35.5453 28.6015 35.1226 28.8615 34.8626L33.7242 30L28.8628 25.1386C28.6028 24.8786 28.6028 24.456 28.8628 24.196C29.1228 23.936 29.5455 23.936 29.8055 24.196L35.1388 29.5293C35.3988 29.7893 35.3988 30.212 35.1388 30.472L29.8055 35.8053C29.6748 35.9346 29.5042 36 29.3335 36Z" fill="white"/>
<path d="M29.9999 44.6668C23.7932 44.6668 18.2359 40.7375 16.1705 34.8895C16.0479 34.5415 16.2305 34.1615 16.5772 34.0388C16.9252 33.9188 17.3052 34.0988 17.4279 34.4455C19.3052 39.7615 24.3572 43.3335 29.9999 43.3335C37.3519 43.3335 43.3332 37.3522 43.3332 30.0002C43.3332 22.6482 37.3519 16.6668 29.9999 16.6668C24.3572 16.6668 19.3052 20.2388 17.4292 25.5562C17.3065 25.9028 16.9252 26.0828 16.5785 25.9628C16.2319 25.8402 16.0492 25.4602 16.1719 25.1122C18.2359 19.2628 23.7932 15.3335 29.9999 15.3335C38.0865 15.3335 44.6665 21.9135 44.6665 30.0002C44.6665 38.0868 38.0865 44.6668 29.9999 44.6668Z" fill="white"/>
</g>
<defs>
<clipPath id="clip0_2497_21885">
<rect width="32" height="32" fill="white" transform="translate(14 14)"/>
</clipPath>
</defs>
</svg>
