<svg width="55" height="55" viewBox="0 0 55 55" fill="none" xmlns="http://www.w3.org/2000/svg">
<path d="M41.7494 4.4115C49.5309 9.21819 54.7162 17.8252 54.7162 27.6433C54.7162 42.7134 42.4995 54.9301 27.4294 54.9301C24.1431 54.9301 20.9924 54.3491 18.0754 53.2834L17.7638 53.1674L18.2712 53.0044L18.9235 52.7905L19.2454 52.683L19.5643 52.5751L20.1936 52.3583L20.8114 52.1401L21.4176 51.9205L22.0123 51.6994L22.3053 51.5883L22.8828 51.365C23.4926 51.126 24.0828 50.8845 24.6533 50.6404L25.0775 50.4568L25.5974 50.226C25.826 50.123 26.0511 50.0196 26.2728 49.9157L26.6028 49.7596L27.0882 49.524L27.3267 49.4056L27.5622 49.2868L28.0247 49.0481C31.9069 47.0117 34.5446 44.7994 35.945 42.3739C38.9121 37.2347 36.3207 31.7427 28.8818 26.1438L28.2764 25.6899L27.9087 25.4079L27.5517 25.128L27.2053 24.8503L26.8696 24.5747L26.7057 24.4377L26.5444 24.3012L26.2298 24.0299L26.0008 23.8277L25.7777 23.6267L25.4893 23.3605L25.2114 23.0965L24.9439 22.8344L24.814 22.7042L24.6867 22.5744L24.4399 22.3165C21.4992 19.1904 20.8426 16.5144 22.1776 14.202C22.8571 13.0251 24.0351 11.8681 25.7096 10.7412L25.9129 10.6061L26.2331 10.4001C26.3778 10.3087 26.5259 10.2175 26.6773 10.1265L26.9069 9.99016L27.2605 9.78628L27.6252 9.58315L27.906 9.4313L28.1932 9.27988L28.5857 9.07867C28.8843 8.92806 29.1923 8.77811 29.5097 8.62887L29.8302 8.47986L30.2672 8.28191L30.4899 8.18325L30.9436 7.98659L31.1746 7.88858L31.645 7.69323L31.8844 7.59588L32.3714 7.40188L32.6191 7.30521L33.1228 7.11258L33.6376 6.92089L33.8991 6.8254L34.4305 6.63514L34.9731 6.44585L35.5267 6.25754L35.8076 6.16376L36.3779 5.97696L36.9592 5.79119L37.5515 5.60644L38.155 5.42275L38.7695 5.24013L39.5533 5.01336L40.3543 4.78831L41.3383 4.52055L41.7494 4.4115ZM27.4294 0.356445C30.7477 0.356445 33.9277 0.948776 36.8694 2.03347L37.1837 2.15157L36.9844 2.21189L36.0125 2.51148L35.6943 2.61212L35.0664 2.81457L34.4499 3.0186L33.8449 3.22421L33.2514 3.43144L32.6692 3.64028L32.3824 3.74532L31.678 4.0097L30.9914 4.27667L30.455 4.49214L30.1911 4.60051L29.6718 4.81851C24.3649 7.08008 20.8869 9.61589 19.2237 12.4966C16.3208 17.5245 18.9538 22.9447 26.3935 28.5421L26.9988 28.996L27.3664 29.2782L27.7233 29.5584L27.8977 29.6977L28.2384 29.9749L28.487 30.1814L28.7295 30.3869L29.0436 30.6591L29.1967 30.7944L29.4949 31.0637C29.6577 31.2128 29.8155 31.3609 29.9686 31.5082L30.1944 31.7284L30.5196 32.0562L30.8286 32.3811C33.7566 35.5289 34.3825 38.2585 32.9911 40.6684C32.0908 42.2279 30.3718 43.763 27.8383 45.2532L27.6057 45.3885L27.2287 45.6021L26.8406 45.815C26.6218 45.9331 26.3979 46.0508 26.1687 46.1683L25.8211 46.3443L25.3937 46.5548L24.955 46.7647L24.5052 46.9738L24.2761 47.0781L23.8094 47.2861L23.3316 47.4934L22.8426 47.6999L22.5939 47.8029L22.088 48.0082L21.8309 48.1106L21.571 48.2128L21.0428 48.4165L20.5034 48.6194L19.9528 48.8215L19.3911 49.0228L18.8182 49.2231L18.5275 49.323L17.9378 49.522L17.6388 49.6212L17.0323 49.8189L16.4147 50.0157L15.627 50.2603L14.8218 50.5035L14.1651 50.6969L13.2487 50.9605C5.38984 46.1708 0.142578 37.5198 0.142578 27.6433C0.142578 12.5732 12.3593 0.356445 27.4294 0.356445Z" fill="#0080FF"/>
</svg>
