<svg width="54" height="54" viewBox="0 0 54 54" fill="none" xmlns="http://www.w3.org/2000/svg">
<path d="M27 0C12.09 0 0 12.09 0 27C0 41.91 12.09 54 27 54C29.49 54 31.5 51.99 31.5 49.5C31.5 48.33 31.065 47.28 30.33 46.485C29.625 45.69 29.205 44.655 29.205 43.5C29.205 41.0099 31.215 39 33.705 39H39C47.28 39 54 32.2799 54 23.9999C54 10.74 41.91 0 27 0ZM10.5 27C8.01 27 6.00005 24.99 6.00005 22.5C6.00005 20.01 8.01 18 10.5 18C12.9901 18 15 20.01 15 22.5C15 24.99 12.99 27 10.5 27ZM19.5 15C17.01 15 15 12.9901 15 10.5C15 8.01 17.01 6.00005 19.5 6.00005C21.9901 6.00005 24 8.01 24 10.5C24 12.9901 21.99 15 19.5 15ZM34.5 15C32.0099 15 30 12.9901 30 10.5C30 8.01 32.0099 6.00005 34.5 6.00005C36.99 6.00005 39 8.01 39 10.5C39 12.9901 36.99 15 34.5 15ZM43.5 27C41.0099 27 39 24.99 39 22.5C39 20.01 41.0099 18 43.5 18C45.99 18 48 20.01 48 22.5C48 24.99 45.99 27 43.5 27Z" fill="url(#paint0_linear_2454_24264)"/>
<defs>
<linearGradient id="paint0_linear_2454_24264" x1="27" y1="0" x2="27" y2="54" gradientUnits="userSpaceOnUse">
<stop stop-color="#346AF8"/>
<stop offset="1" stop-color="#3C22A2"/>
</linearGradient>
</defs>
</svg>
